<svg width="466" height="414" viewBox="0 0 466 414" fill="none" xmlns="http://www.w3.org/2000/svg">
<path d="M465.5 116.438C465.5 117.833 465.451 119.223 465.353 120.608C461.085 91.8146 435.972 65.9764 397.654 46.8176C355.471 25.7258 297.212 12.6875 232.875 12.6875C168.538 12.6875 110.279 25.7258 68.0957 46.8176C29.7782 65.9764 4.66478 91.8146 0.397255 120.608C0.299356 119.223 0.25 117.833 0.25 116.438C0.25 84.4299 26.2038 55.3851 68.3193 34.3274C110.42 13.2771 168.599 0.25 232.875 0.25C297.151 0.25 355.33 13.2771 397.431 34.3274C439.546 55.3851 465.5 84.4299 465.5 116.438ZM397.431 47.2649C436.69 66.8947 461.906 93.4651 465.145 122.906C464.949 124.687 464.673 126.456 464.318 128.215C457.915 101.568 433.592 77.7239 397.654 59.7551C355.471 38.6633 297.212 25.625 232.875 25.625C168.538 25.625 110.279 38.6633 68.0957 59.7551C32.1583 77.7239 7.83549 101.568 1.43191 128.215C1.07707 126.456 0.80083 124.687 0.604956 122.906C3.8441 93.4651 29.0596 66.8947 68.3193 47.2649C110.42 26.2146 168.599 13.1875 232.875 13.1875C297.151 13.1875 355.33 26.2146 397.431 47.2649ZM464.585 129.375C464.889 127.992 465.146 126.602 465.353 125.205C465.451 126.589 465.5 127.979 465.5 129.375C465.5 130.771 465.451 132.161 465.353 133.545C465.146 132.148 464.889 130.758 464.585 129.375ZM397.431 60.2024C433.793 78.3838 458.108 102.519 464.072 129.375C463.649 131.283 463.132 133.177 462.526 135.056C454.105 110.873 430.828 89.2795 397.654 72.6926C355.471 51.6008 297.212 38.5625 232.875 38.5625C168.538 38.5625 110.279 51.6008 68.0957 72.6926C34.9219 89.2795 11.6451 110.873 3.22432 135.056C2.61771 133.177 2.10144 131.283 1.67778 129.375C7.64181 102.519 31.9565 78.3838 68.3193 60.2024C110.42 39.1521 168.599 26.125 232.875 26.125C297.151 26.125 355.33 39.1521 397.431 60.2024ZM462.794 135.844C463.381 134.087 463.89 132.318 464.318 130.535C464.673 132.294 464.949 134.063 465.145 135.844C464.949 137.624 464.673 139.394 464.318 141.152C463.89 139.37 463.381 137.6 462.794 135.844ZM397.431 73.1399C430.849 89.849 454.091 111.587 462.266 135.844C461.602 137.815 460.838 139.769 459.977 141.706C449.955 120.07 427.925 100.766 397.654 85.6301C355.471 64.5383 297.212 51.5 232.875 51.5C168.538 51.5 110.279 64.5383 68.0957 85.6301C37.8249 100.766 15.7947 120.07 5.77291 141.706C4.91227 139.769 4.1485 137.815 3.48423 135.844C11.6586 111.587 34.901 89.849 68.3193 73.1399C110.42 52.0896 168.599 39.0625 232.875 39.0625C297.151 39.0625 355.33 52.0896 397.431 73.1399ZM460.255 142.312C461.103 140.436 461.861 138.542 462.526 136.632C463.132 138.511 463.649 140.405 464.072 142.312C463.649 144.22 463.132 146.114 462.526 147.993C461.861 146.083 461.103 144.189 460.255 142.312ZM397.431 86.0774C427.85 101.287 449.837 120.663 459.704 142.312C458.788 144.322 457.768 146.311 456.647 148.28C445.507 129.221 424.925 112.203 397.654 98.5676C355.471 77.4758 297.212 64.4375 232.875 64.4375C168.538 64.4375 110.279 77.4758 68.0957 98.5676C40.8254 112.203 20.243 129.221 9.10336 148.28C7.98177 146.311 6.96164 144.322 6.0459 142.312C15.9128 120.663 37.9005 101.287 68.3193 86.0774C110.42 65.0271 168.599 52 232.875 52C297.151 52 355.33 65.0271 397.431 86.0774ZM456.937 148.781C458.048 146.848 459.063 144.893 459.977 142.919C460.838 144.856 461.602 146.81 462.266 148.781C461.602 150.752 460.838 152.707 459.977 154.643C459.063 152.67 458.048 150.715 456.937 148.781ZM397.431 99.0149C424.787 112.693 445.324 129.741 456.359 148.781C455.179 150.816 453.891 152.829 452.498 154.816C440.754 138.344 421.833 123.595 397.654 111.505C355.471 90.4133 297.212 77.375 232.875 77.375C168.538 77.375 110.279 90.4133 68.0957 111.505C43.9169 123.595 24.9956 138.344 13.2519 154.816C11.8587 152.829 10.5708 150.816 9.39136 148.781C20.4262 129.741 40.9634 112.693 68.3193 99.0149C110.42 77.9646 168.599 64.9375 232.875 64.9375C297.151 64.9375 355.33 77.9646 397.431 99.0149ZM452.805 155.25C454.189 153.285 455.47 151.295 456.647 149.282C457.768 151.251 458.788 153.241 459.704 155.25C458.788 157.259 457.768 159.249 456.647 161.218C455.47 159.205 454.189 157.215 452.805 155.25ZM397.431 111.952C421.65 124.062 440.525 138.813 452.192 155.25C450.734 157.304 449.164 159.332 447.484 161.331C435.675 147.439 418.646 134.938 397.654 124.443C355.471 103.351 297.212 90.3125 232.875 90.3125C168.538 90.3125 110.279 103.351 68.0957 124.443C47.1042 134.938 30.0755 147.439 18.266 161.331C16.5864 159.332 15.0158 157.304 13.5577 155.25C25.2253 138.813 44.0999 124.062 68.3193 111.952C110.42 90.9021 168.599 77.875 232.875 77.875C297.151 77.875 355.33 90.9021 397.431 111.952ZM447.812 161.719C449.481 159.735 451.045 157.722 452.498 155.684C453.891 157.671 455.179 159.684 456.359 161.719C455.179 163.754 453.891 165.766 452.498 167.754C451.045 165.715 449.481 163.703 447.812 161.719ZM397.431 124.89C418.428 135.388 435.408 147.872 447.157 161.719C445.401 163.788 443.528 165.827 441.543 167.833C430.232 156.502 415.351 146.229 397.654 137.38C355.471 116.288 297.212 103.25 232.875 103.25C168.538 103.25 110.279 116.288 68.0957 137.38C50.3986 146.229 35.5181 156.502 24.207 167.833C22.2215 165.827 20.3488 163.788 18.593 161.719C30.3423 147.872 47.3222 135.388 68.3193 124.89C110.42 103.84 168.599 90.8125 232.875 90.8125C297.151 90.8125 355.33 103.84 397.431 124.89ZM441.895 168.188C443.87 166.192 445.734 164.164 447.484 162.106C449.164 164.106 450.734 166.133 452.192 168.188C450.734 170.242 449.164 172.269 447.484 174.269C445.734 172.211 443.87 170.183 441.895 168.188ZM397.431 137.827C415.105 146.665 429.933 156.908 441.191 168.188C439.113 170.27 436.912 172.317 434.595 174.326C424.379 165.524 411.933 157.457 397.654 150.318C355.471 129.226 297.212 116.188 232.875 116.188C168.538 116.188 110.279 129.226 68.0957 150.318C53.8166 157.457 41.3711 165.524 31.1548 174.326C28.8376 172.317 26.6375 170.27 24.5591 168.188C35.817 156.908 50.645 146.665 68.3193 137.827C110.42 116.777 168.599 103.75 232.875 103.75C297.151 103.75 355.33 116.777 397.431 137.827ZM434.977 174.656C437.282 172.655 439.472 170.616 441.543 168.542C443.528 170.548 445.401 172.587 447.157 174.656C445.401 176.726 443.528 178.764 441.543 180.771C439.472 178.696 437.282 176.657 434.977 174.656ZM397.431 150.765C411.663 157.881 424.05 165.91 434.213 174.656C431.78 176.751 429.218 178.804 426.535 180.813C418.052 174.493 408.369 168.613 397.654 163.255C355.471 142.163 297.212 129.125 232.875 129.125C168.538 129.125 110.279 142.163 68.0957 163.255C57.3806 168.613 47.698 174.493 39.215 180.813C36.5316 178.804 33.9704 176.751 31.5368 174.656C41.6999 165.91 54.0868 157.881 68.3193 150.765C110.42 129.715 168.599 116.688 232.875 116.688C297.151 116.688 355.33 129.715 397.431 150.765ZM426.952 181.125C429.622 179.122 432.171 177.075 434.595 174.986C436.912 176.996 439.113 179.043 441.191 181.125C439.113 183.207 436.912 185.254 434.595 187.264C432.171 185.175 429.622 183.128 426.952 181.125ZM397.431 163.702C408.079 169.026 417.694 174.861 426.117 181.125C423.284 183.232 420.317 185.29 417.22 187.296C411.166 183.389 404.629 179.68 397.654 176.193C355.471 155.101 297.212 142.062 232.875 142.062C168.538 142.062 110.279 155.101 68.0957 176.193C61.1209 179.68 54.5836 183.389 48.5299 187.296C45.4334 185.29 42.4656 183.232 39.6326 181.125C48.0562 174.861 57.6712 169.026 68.3193 163.702C110.42 142.652 168.599 129.625 232.875 129.625C297.151 129.625 355.33 142.652 397.431 163.702ZM417.679 187.594C420.76 185.592 423.714 183.539 426.535 181.437C429.218 183.446 431.78 185.499 434.213 187.594C431.78 189.688 429.218 191.741 426.535 193.751C423.714 191.649 420.76 189.595 417.679 187.594ZM397.431 176.64C404.32 180.085 410.778 183.743 416.76 187.594C413.466 189.714 410.028 191.776 406.453 193.776C403.604 192.187 400.67 190.638 397.654 189.13C355.471 168.038 297.212 155 232.875 155C168.538 155 110.279 168.038 68.0957 189.13C65.0799 190.638 62.1458 192.187 59.2973 193.776C55.7223 191.776 52.2843 189.714 48.9905 187.594C54.9723 183.743 61.4296 180.085 68.3193 176.64C110.42 155.59 168.599 142.562 232.875 142.562C297.151 142.562 355.33 155.59 397.431 176.64ZM406.964 194.062C410.52 192.066 413.941 190.008 417.22 187.891C420.317 189.898 423.284 191.956 426.117 194.062C423.284 196.169 420.317 198.227 417.22 200.234C413.941 198.117 410.52 196.059 406.964 194.062ZM397.431 189.577C400.345 191.035 403.183 192.53 405.939 194.062C403.183 195.595 400.345 197.09 397.431 198.548C396.281 199.122 395.119 199.691 393.946 200.254C352.088 180.231 295.347 167.938 232.875 167.938C170.403 167.938 113.662 180.231 71.804 200.254C70.6306 199.691 69.469 199.122 68.3193 198.548C65.4046 197.09 62.5673 195.595 59.8107 194.062C62.5673 192.53 65.4046 191.035 68.3193 189.577C110.42 168.527 168.599 155.5 232.875 155.5C297.151 155.5 355.33 168.527 397.431 189.577ZM394.523 200.531C395.577 200.024 396.62 199.512 397.654 198.995C400.67 197.487 403.604 195.938 406.453 194.349C410.028 196.349 413.466 198.411 416.76 200.531C413.466 202.651 410.028 204.713 406.453 206.714C403.604 205.125 400.67 203.576 397.654 202.068C396.62 201.551 395.577 201.038 394.523 200.531ZM232.875 168.438C295.107 168.438 351.624 180.649 393.366 200.531C388.834 202.69 384.127 204.758 379.258 206.73C339.242 190.557 288.315 180.875 232.875 180.875C177.435 180.875 126.508 190.557 86.4915 206.73C81.6226 204.758 76.9162 202.69 72.384 200.531C114.126 180.649 170.643 168.438 232.875 168.438ZM379.923 207C384.762 205.03 389.44 202.964 393.946 200.808C395.119 201.371 396.281 201.94 397.431 202.515C400.345 203.972 403.183 205.468 405.939 207C403.183 208.532 400.345 210.028 397.431 211.485C396.281 212.06 395.119 212.629 393.946 213.192C389.44 211.036 384.762 208.97 379.923 207ZM232.875 181.375C288.042 181.375 338.717 190.971 378.59 207C338.717 223.029 288.042 232.625 232.875 232.625C177.708 232.625 127.033 223.029 87.1599 207C127.033 190.971 177.708 181.375 232.875 181.375ZM86.4915 207.27C126.508 223.443 177.435 233.125 232.875 233.125C288.315 233.125 339.242 223.443 379.258 207.27C384.127 209.242 388.834 211.31 393.366 213.469C351.624 233.351 295.107 245.562 232.875 245.562C170.643 245.562 114.126 233.351 72.384 213.469C76.9162 211.31 81.6226 209.242 86.4915 207.27ZM71.804 200.808C76.3096 202.964 80.9877 205.03 85.8267 207C80.9877 208.97 76.3096 211.036 71.804 213.192C70.6306 212.629 69.469 212.06 68.3193 211.485C65.4046 210.028 62.5673 208.532 59.8107 207C62.5673 205.468 65.4046 203.972 68.3193 202.515C69.469 201.94 70.6306 201.371 71.804 200.808ZM68.0957 211.932C69.1297 212.449 70.1733 212.962 71.2265 213.469C70.1733 213.976 69.1297 214.488 68.0957 215.005C65.0799 216.513 62.1458 218.062 59.2973 219.651C55.7223 217.651 52.2843 215.589 48.9905 213.469C52.2843 211.349 55.7223 209.287 59.2973 207.286C62.1458 208.875 65.0799 210.424 68.0957 211.932ZM48.5299 213.766C51.8091 215.883 55.2301 217.941 58.7857 219.938C55.2301 221.934 51.8091 223.992 48.5299 226.109C45.4334 224.102 42.4656 222.044 39.6326 219.938C42.4656 217.831 45.4334 215.773 48.5299 213.766ZM48.9905 226.406C52.2843 224.286 55.7223 222.224 59.2973 220.224C62.1458 221.813 65.0799 223.362 68.0957 224.87C110.279 245.962 168.538 259 232.875 259C297.212 259 355.471 245.962 397.654 224.87C400.67 223.362 403.604 221.813 406.453 220.224C410.028 222.224 413.466 224.286 416.76 226.406C410.778 230.257 404.32 233.915 397.431 237.36C355.33 258.41 297.151 271.438 232.875 271.438C168.599 271.438 110.42 258.41 68.3193 237.36C61.4296 233.915 54.9723 230.257 48.9905 226.406ZM39.215 220.249C42.0362 222.351 44.9902 224.405 48.0706 226.406C44.9902 228.408 42.0362 230.461 39.215 232.563C36.5316 230.554 33.9704 228.501 31.5368 226.406C33.9704 224.312 36.5316 222.259 39.215 220.249ZM39.6326 232.875C42.4656 230.768 45.4334 228.71 48.5299 226.704C54.5836 230.611 61.1209 234.32 68.0957 237.807C110.279 258.899 168.538 271.938 232.875 271.938C297.212 271.938 355.471 258.899 397.654 237.807C404.629 234.32 411.166 230.611 417.22 226.704C420.317 228.71 423.284 230.768 426.117 232.875C417.694 239.139 408.079 244.974 397.431 250.298C355.33 271.348 297.151 284.375 232.875 284.375C168.599 284.375 110.42 271.348 68.3193 250.298C57.6712 244.974 48.0562 239.139 39.6326 232.875ZM31.1548 226.736C33.5789 228.825 36.1285 230.872 38.7983 232.875C36.1285 234.878 33.5789 236.925 31.1548 239.014C28.8376 237.004 26.6375 234.957 24.5591 232.875C26.6375 230.793 28.8376 228.746 31.1548 226.736ZM31.5368 239.344C33.9704 237.249 36.5315 235.196 39.215 233.187C47.698 239.507 57.3806 245.387 68.0957 250.745C110.279 271.837 168.538 284.875 232.875 284.875C297.212 284.875 355.471 271.837 397.654 250.745C408.369 245.387 418.052 239.507 426.535 233.187C429.218 235.196 431.78 237.249 434.213 239.344C424.05 248.09 411.663 256.119 397.431 263.235C355.33 284.285 297.151 297.312 232.875 297.312C168.599 297.312 110.42 284.285 68.3193 263.235C54.0868 256.119 41.6999 248.09 31.5368 239.344ZM24.207 233.229C26.2776 235.304 28.4679 237.343 30.7732 239.344C28.4679 241.345 26.2776 243.384 24.207 245.458C22.2215 243.452 20.3488 241.413 18.593 239.344C20.3488 237.274 22.2215 235.236 24.207 233.229ZM24.5591 245.812C26.6375 243.73 28.8376 241.683 31.1548 239.674C41.3711 248.476 53.8166 256.543 68.0957 263.682C110.279 284.774 168.538 297.812 232.875 297.812C297.212 297.812 355.471 284.774 397.654 263.682C411.933 256.543 424.379 248.476 434.595 239.674C436.912 241.683 439.113 243.73 441.191 245.812C429.933 257.092 415.105 267.335 397.431 276.173C355.33 297.223 297.151 310.25 232.875 310.25C168.599 310.25 110.42 297.223 68.3193 276.173C50.645 267.335 35.817 257.092 24.5591 245.812ZM18.266 239.731C20.0157 241.789 21.88 243.817 23.8548 245.812C21.88 247.808 20.0157 249.836 18.266 251.894C16.5864 249.894 15.0158 247.867 13.5577 245.812C15.0158 243.758 16.5864 241.731 18.266 239.731ZM18.593 252.281C20.3488 250.212 22.2215 248.173 24.207 246.167C35.5181 257.498 50.3986 267.771 68.0957 276.62C110.279 297.712 168.538 310.75 232.875 310.75C297.212 310.75 355.471 297.712 397.654 276.62C415.351 267.771 430.232 257.498 441.543 246.167C443.529 248.173 445.401 250.212 447.157 252.281C435.408 266.128 418.428 278.612 397.431 289.11C355.33 310.16 297.151 323.188 232.875 323.188C168.599 323.188 110.42 310.16 68.3193 289.11C47.3222 278.612 30.3423 266.128 18.593 252.281ZM13.2519 246.246C14.7053 248.285 16.2687 250.297 17.9384 252.281C16.2687 254.265 14.7053 256.278 13.2519 258.316C11.8587 256.329 10.5708 254.316 9.39136 252.281C10.5708 250.246 11.8587 248.234 13.2519 246.246ZM13.5577 258.75C15.0158 256.696 16.5864 254.668 18.266 252.669C30.0755 266.561 47.1042 279.062 68.0957 289.557C110.279 310.649 168.538 323.688 232.875 323.688C297.212 323.688 355.471 310.649 397.654 289.557C418.646 279.062 435.675 266.561 447.484 252.669C449.164 254.668 450.734 256.696 452.192 258.75C440.525 275.187 421.65 289.938 397.431 302.048C355.33 323.098 297.151 336.125 232.875 336.125C168.599 336.125 110.42 323.098 68.3193 302.048C44.0999 289.938 25.2253 275.187 13.5577 258.75ZM9.10336 252.782C10.2796 254.795 11.5612 256.785 12.9447 258.75C11.5612 260.715 10.2796 262.705 9.10335 264.718C7.98177 262.749 6.96163 260.759 6.0459 258.75C6.96163 256.741 7.98177 254.751 9.10336 252.782ZM9.39135 265.219C10.5708 263.184 11.8587 261.171 13.2519 259.184C24.9956 275.656 43.9169 290.405 68.0957 302.495C110.279 323.587 168.538 336.625 232.875 336.625C297.212 336.625 355.471 323.587 397.654 302.495C421.833 290.405 440.754 275.656 452.498 259.184C453.891 261.171 455.179 263.184 456.359 265.219C445.324 284.259 424.787 301.307 397.431 314.985C355.33 336.035 297.151 349.062 232.875 349.062C168.599 349.062 110.42 336.035 68.3193 314.985C40.9634 301.307 20.4262 284.259 9.39135 265.219ZM5.77291 259.357C6.68723 261.33 7.7015 263.285 8.81286 265.219C7.7015 267.152 6.68723 269.107 5.77291 271.081C4.91226 269.144 4.1485 267.19 3.48423 265.219C4.1485 263.248 4.91227 261.293 5.77291 259.357ZM6.0459 271.688C6.96163 269.678 7.98177 267.689 9.10335 265.72C20.243 284.779 40.8254 301.797 68.0957 315.432C110.279 336.524 168.538 349.562 232.875 349.562C297.212 349.562 355.471 336.524 397.654 315.432C424.925 301.797 445.507 284.779 456.647 265.72C457.768 267.689 458.788 269.678 459.704 271.688C449.837 293.337 427.85 312.713 397.431 327.923C355.33 348.973 297.151 362 232.875 362C168.599 362 110.42 348.973 68.3193 327.923C37.9005 312.713 15.9128 293.337 6.0459 271.688ZM3.22431 266.007C3.88947 267.917 4.64731 269.811 5.4954 271.688C4.64731 273.564 3.88946 275.458 3.22431 277.368C2.61771 275.489 2.10144 273.595 1.67778 271.688C2.10144 269.78 2.61771 267.886 3.22431 266.007ZM3.48423 278.156C4.1485 276.185 4.91226 274.231 5.77291 272.294C15.7947 293.93 37.8249 313.234 68.0957 328.37C110.279 349.462 168.538 362.5 232.875 362.5C297.212 362.5 355.471 349.462 397.654 328.37C427.925 313.234 449.955 293.93 459.977 272.294C460.838 274.231 461.602 276.185 462.266 278.156C454.091 302.413 430.849 324.151 397.431 340.86C355.33 361.91 297.151 374.938 232.875 374.938C168.599 374.938 110.42 361.91 68.3193 340.86C34.901 324.151 11.6586 302.413 3.48423 278.156ZM1.43191 272.848C1.86024 274.63 2.36875 276.4 2.95554 278.156C2.36875 279.913 1.86024 281.682 1.43191 283.465C1.07707 281.706 0.80083 279.937 0.604956 278.156C0.80083 276.376 1.07707 274.606 1.43191 272.848ZM1.67778 284.625C2.10144 282.717 2.61771 280.823 3.22431 278.944C11.6451 303.127 34.9219 324.72 68.0957 341.307C110.279 362.399 168.538 375.438 232.875 375.438C297.212 375.438 355.471 362.399 397.654 341.307C430.828 324.72 454.105 303.127 462.526 278.944C463.132 280.823 463.649 282.717 464.072 284.625C458.108 311.481 433.793 335.616 397.431 353.798C355.33 374.848 297.151 387.875 232.875 387.875C168.599 387.875 110.42 374.848 68.3193 353.798C31.9565 335.616 7.64181 311.481 1.67778 284.625ZM0.397255 280.455C0.604328 281.852 0.860482 283.242 1.16484 284.625C0.860482 286.008 0.604327 287.398 0.397254 288.795C0.299356 287.411 0.25 286.021 0.25 284.625C0.25 283.229 0.299356 281.839 0.397255 280.455ZM0.604956 291.094C0.80083 289.313 1.07707 287.544 1.43191 285.785C7.83549 312.432 32.1583 336.276 68.0957 354.245C110.279 375.337 168.538 388.375 232.875 388.375C297.212 388.375 355.471 375.337 397.654 354.245C433.592 336.276 457.915 312.432 464.318 285.785C464.673 287.544 464.949 289.313 465.145 291.094C461.906 320.535 436.69 347.105 397.431 366.735C355.33 387.785 297.151 400.812 232.875 400.812C168.599 400.812 110.42 387.785 68.3193 366.735C29.0596 347.105 3.8441 320.535 0.604956 291.094ZM1.16484 271.688C0.860482 273.07 0.604327 274.46 0.397254 275.858C0.299356 274.473 0.25 273.083 0.25 271.688C0.25 270.292 0.299356 268.902 0.397255 267.517C0.604328 268.915 0.860482 270.305 1.16484 271.688ZM1.43191 270.527C1.07707 268.769 0.80083 266.999 0.604956 265.219C0.80083 263.438 1.07707 261.669 1.43191 259.91C1.86024 261.693 2.36875 263.462 2.95554 265.219C2.36875 266.975 1.86024 268.745 1.43191 270.527ZM1.16484 258.75C0.860482 260.133 0.604327 261.523 0.397254 262.92C0.299356 261.536 0.25 260.146 0.25 258.75C0.25 257.354 0.299356 255.964 0.397255 254.58C0.604328 255.977 0.860482 257.367 1.16484 258.75ZM3.22431 264.431C2.61771 262.552 2.10144 260.658 1.67778 258.75C2.10144 256.842 2.61771 254.948 3.22431 253.069C3.88947 254.979 4.64731 256.873 5.4954 258.75C4.64731 260.627 3.88946 262.521 3.22431 264.431ZM2.95554 252.281C2.36875 254.038 1.86024 255.807 1.43191 257.59C1.07707 255.831 0.80083 254.062 0.604956 252.281C0.80083 250.501 1.07707 248.731 1.43191 246.973C1.86024 248.755 2.36875 250.525 2.95554 252.281ZM5.77291 258.143C4.91226 256.207 4.1485 254.252 3.48423 252.281C4.1485 250.31 4.91227 248.356 5.77291 246.419C6.68723 248.393 7.7015 250.348 8.81286 252.281C7.7015 254.215 6.68723 256.17 5.77291 258.143ZM5.4954 245.812C4.64731 247.689 3.88946 249.583 3.22431 251.493C2.61771 249.614 2.10144 247.72 1.67778 245.812C2.10144 243.905 2.61771 242.011 3.22431 240.132C3.88947 242.042 4.64731 243.936 5.4954 245.812ZM9.10335 251.78C7.98177 249.811 6.96163 247.822 6.0459 245.812C6.96164 243.803 7.98177 241.814 9.10336 239.845C10.2796 241.857 11.5612 243.847 12.9447 245.812C11.5612 247.778 10.2796 249.768 9.10335 251.78ZM8.81286 239.344C7.7015 241.277 6.68723 243.232 5.77291 245.206C4.91227 243.269 4.1485 241.315 3.48423 239.344C4.1485 237.373 4.91227 235.418 5.77291 233.482C6.68723 235.455 7.7015 237.41 8.81286 239.344ZM13.2519 245.379C11.8587 243.391 10.5708 241.379 9.39136 239.344C10.5708 237.309 11.8587 235.296 13.2519 233.309C14.7053 235.347 16.2687 237.36 17.9384 239.344C16.2687 241.328 14.7053 243.34 13.2519 245.379ZM12.9447 232.875C11.5612 234.84 10.2796 236.83 9.10335 238.843C7.98177 236.874 6.96163 234.884 6.0459 232.875C6.96164 230.866 7.98177 228.876 9.10336 226.907C10.2796 228.92 11.5612 230.91 12.9447 232.875ZM18.266 238.956C16.5864 236.957 15.0158 234.929 13.5577 232.875C15.0158 230.821 16.5864 228.793 18.266 226.794C20.0157 228.852 21.88 230.88 23.8548 232.875C21.88 234.87 20.0157 236.898 18.266 238.956ZM17.9384 226.406C16.2687 228.39 14.7053 230.403 13.2519 232.441C11.8587 230.454 10.5708 228.441 9.39136 226.406C10.5708 224.371 11.8587 222.359 13.2519 220.371C14.7053 222.41 16.2687 224.422 17.9384 226.406ZM24.207 232.521C22.2215 230.514 20.3488 228.476 18.593 226.406C20.3488 224.337 22.2215 222.298 24.207 220.292C26.2776 222.366 28.4679 224.405 30.7732 226.406C28.4679 228.407 26.2776 230.446 24.207 232.521ZM23.8548 219.938C21.88 221.933 20.0157 223.961 18.266 226.019C16.5864 224.019 15.0158 221.992 13.5577 219.938C15.0158 217.883 16.5864 215.856 18.266 213.856C20.0157 215.914 21.88 217.942 23.8548 219.938ZM31.1548 226.076C28.8376 224.067 26.6375 222.02 24.5591 219.938C26.6375 217.855 28.8376 215.808 31.1548 213.799C33.5789 215.887 36.1285 217.934 38.7983 219.938C36.1285 221.941 33.5789 223.988 31.1548 226.076ZM30.7732 213.469C28.4679 215.47 26.2776 217.509 24.207 219.583C22.2215 217.577 20.3488 215.538 18.593 213.469C20.3488 211.399 22.2215 209.361 24.207 207.354C26.2776 209.429 28.4679 211.468 30.7732 213.469ZM39.215 219.626C36.5316 217.616 33.9704 215.563 31.5368 213.469C33.9704 211.374 36.5316 209.321 39.215 207.312C42.0362 209.414 44.9902 211.467 48.0706 213.469C44.9902 215.47 42.0362 217.524 39.215 219.626ZM38.7983 207C36.1285 209.003 33.5789 211.05 31.1548 213.139C28.8376 211.129 26.6375 209.082 24.5591 207C26.6375 204.918 28.8376 202.871 31.1548 200.861C33.5789 202.95 36.1285 204.997 38.7983 207ZM48.5299 213.171C45.4334 211.165 42.4656 209.107 39.6326 207C42.4656 204.893 45.4334 202.835 48.5299 200.829C51.8091 202.945 55.2301 205.004 58.7857 207C55.2301 208.996 51.8091 211.055 48.5299 213.171ZM48.0706 200.531C44.9902 202.533 42.0362 204.586 39.215 206.688C36.5316 204.679 33.9704 202.626 31.5368 200.531C33.9704 198.437 36.5316 196.384 39.215 194.374C42.0362 196.476 44.9902 198.53 48.0706 200.531ZM59.2973 206.714C55.7223 204.713 52.2843 202.651 48.9905 200.531C52.2843 198.411 55.7223 196.349 59.2973 194.349C62.1458 195.938 65.0799 197.487 68.0957 198.995C69.1297 199.512 70.1733 200.024 71.2265 200.531C70.1733 201.038 69.1297 201.551 68.0957 202.068C65.0799 203.576 62.1458 205.125 59.2973 206.714ZM58.7857 194.062C55.2301 196.059 51.8091 198.117 48.5299 200.234C45.4334 198.227 42.4656 196.169 39.6326 194.062C42.4656 191.956 45.4334 189.898 48.5299 187.891C51.8091 190.008 55.2301 192.066 58.7857 194.062ZM39.215 181.437C42.0362 183.539 44.9902 185.592 48.0706 187.594C44.9902 189.595 42.0362 191.649 39.215 193.751C36.5316 191.741 33.9704 189.688 31.5368 187.594C33.9704 185.499 36.5316 183.446 39.215 181.437ZM31.1548 187.924C33.5789 190.012 36.1285 192.059 38.7983 194.062C36.1285 196.066 33.5789 198.113 31.1548 200.201C28.8376 198.192 26.6375 196.145 24.5591 194.062C26.6375 191.98 28.8376 189.933 31.1548 187.924ZM24.207 194.417C26.2776 196.491 28.4679 198.53 30.7732 200.531C28.4679 202.532 26.2776 204.571 24.207 206.646C22.2215 204.639 20.3488 202.601 18.593 200.531C20.3488 198.462 22.2215 196.423 24.207 194.417ZM18.266 200.919C20.0157 202.977 21.88 205.005 23.8548 207C21.88 208.995 20.0157 211.023 18.266 213.081C16.5864 211.082 15.0158 209.054 13.5577 207C15.0158 204.946 16.5864 202.918 18.266 200.919ZM13.2519 207.434C14.7053 209.472 16.2687 211.485 17.9384 213.469C16.2687 215.453 14.7053 217.465 13.2519 219.504C11.8587 217.516 10.5708 215.504 9.39136 213.469C10.5708 211.434 11.8587 209.421 13.2519 207.434ZM9.10336 213.97C10.2796 215.982 11.5612 217.972 12.9447 219.938C11.5612 221.903 10.2796 223.893 9.10336 225.905C7.98177 223.936 6.96164 221.947 6.0459 219.938C6.96164 217.928 7.98177 215.939 9.10336 213.97ZM5.77291 220.544C6.68723 222.518 7.7015 224.473 8.81286 226.406C7.7015 228.34 6.68723 230.295 5.77291 232.268C4.91227 230.332 4.1485 228.377 3.48423 226.406C4.1485 224.435 4.91227 222.481 5.77291 220.544ZM3.22431 227.194C3.88947 229.104 4.64731 230.998 5.4954 232.875C4.64731 234.752 3.88947 236.646 3.22431 238.556C2.61771 236.677 2.10144 234.783 1.67778 232.875C2.10144 230.967 2.61771 229.073 3.22431 227.194ZM1.43191 234.035C1.86024 235.818 2.36875 237.587 2.95554 239.344C2.36875 241.1 1.86024 242.87 1.43191 244.652C1.07707 242.894 0.80083 241.124 0.604956 239.344C0.80083 237.563 1.07707 235.794 1.43191 234.035ZM0.397255 241.642C0.604328 243.04 0.860482 244.43 1.16484 245.812C0.860482 247.195 0.604327 248.585 0.397254 249.983C0.299356 248.598 0.25 247.208 0.25 245.812C0.25 244.417 0.299356 243.027 0.397255 241.642ZM1.16484 232.875C0.860482 234.258 0.604327 235.648 0.397254 237.045C0.299356 235.661 0.25 234.271 0.25 232.875C0.25 231.479 0.299356 230.089 0.397255 228.705C0.604328 230.102 0.860482 231.492 1.16484 232.875ZM1.43191 231.715C1.07707 229.956 0.80083 228.187 0.604956 226.406C0.80083 224.626 1.07707 222.856 1.43191 221.098C1.86024 222.88 2.36875 224.65 2.95554 226.406C2.36875 228.163 1.86024 229.932 1.43191 231.715ZM1.16484 219.938C0.860482 221.32 0.604327 222.71 0.397255 224.108C0.299356 222.723 0.25 221.333 0.25 219.938C0.25 218.542 0.299356 217.152 0.397255 215.767C0.604328 217.165 0.860482 218.555 1.16484 219.938ZM3.22431 225.618C2.61771 223.739 2.10144 221.845 1.67778 219.938C2.10144 218.03 2.61771 216.136 3.22431 214.257C3.88947 216.167 4.64731 218.061 5.4954 219.938C4.64731 221.814 3.88947 223.708 3.22431 225.618ZM2.95554 213.469C2.36875 215.225 1.86024 216.995 1.43191 218.777C1.07707 217.019 0.80083 215.249 0.604956 213.469C0.80083 211.688 1.07707 209.919 1.43191 208.16C1.86024 209.943 2.36875 211.712 2.95554 213.469ZM5.77291 219.331C4.91227 217.394 4.1485 215.44 3.48423 213.469C4.1485 211.498 4.91227 209.543 5.77291 207.607C6.68723 209.58 7.7015 211.535 8.81286 213.469C7.7015 215.402 6.68723 217.357 5.77291 219.331ZM5.4954 207C4.64731 208.877 3.88947 210.771 3.22431 212.681C2.61771 210.802 2.10144 208.908 1.67778 207C2.10144 205.092 2.61771 203.198 3.22431 201.319C3.88947 203.229 4.64731 205.123 5.4954 207ZM9.10336 212.968C7.98177 210.999 6.96164 209.009 6.0459 207C6.96164 204.991 7.98177 203.001 9.10336 201.032C10.2796 203.045 11.5612 205.035 12.9447 207C11.5612 208.965 10.2796 210.955 9.10336 212.968ZM8.81286 200.531C7.7015 202.465 6.68723 204.42 5.77291 206.393C4.91227 204.457 4.1485 202.502 3.48423 200.531C4.1485 198.56 4.91227 196.606 5.77291 194.669C6.68723 196.643 7.7015 198.598 8.81286 200.531ZM13.2519 206.566C11.8587 204.579 10.5708 202.566 9.39136 200.531C10.5708 198.496 11.8587 196.484 13.2519 194.496C14.7053 196.535 16.2687 198.547 17.9384 200.531C16.2687 202.515 14.7053 204.528 13.2519 206.566ZM12.9447 194.062C11.5612 196.028 10.2796 198.018 9.10336 200.03C7.98177 198.061 6.96164 196.072 6.0459 194.062C6.96164 192.053 7.98177 190.064 9.10336 188.095C10.2796 190.107 11.5612 192.097 12.9447 194.062ZM18.266 200.144C16.5864 198.144 15.0158 196.117 13.5577 194.062C15.0158 192.008 16.5864 189.981 18.266 187.981C20.0157 190.039 21.88 192.067 23.8548 194.062C21.88 196.058 20.0157 198.086 18.266 200.144ZM17.9384 187.594C16.2687 189.578 14.7053 191.59 13.2519 193.629C11.8587 191.641 10.5708 189.629 9.39136 187.594C10.5708 185.559 11.8587 183.546 13.2519 181.559C14.7053 183.597 16.2687 185.61 17.9384 187.594ZM24.207 193.708C22.2215 191.702 20.3488 189.663 18.593 187.594C20.3488 185.524 22.2215 183.486 24.207 181.479C26.2776 183.554 28.4679 185.593 30.7732 187.594C28.4679 189.595 26.2776 191.634 24.207 193.708ZM23.8548 181.125C21.88 183.12 20.0157 185.148 18.266 187.206C16.5864 185.207 15.0158 183.179 13.5577 181.125C15.0158 179.071 16.5864 177.043 18.266 175.044C20.0157 177.102 21.88 179.13 23.8548 181.125ZM31.1548 187.264C28.8376 185.254 26.6375 183.207 24.5591 181.125C26.6375 179.043 28.8376 176.996 31.1548 174.986C33.5789 177.075 36.1285 179.122 38.7983 181.125C36.1285 183.128 33.5789 185.175 31.1548 187.264ZM30.7732 174.656C28.4679 176.657 26.2776 178.696 24.207 180.771C22.2215 178.764 20.3488 176.726 18.593 174.656C20.3488 172.587 22.2215 170.548 24.207 168.542C26.2776 170.616 28.4679 172.655 30.7732 174.656ZM18.266 162.106C20.0157 164.164 21.88 166.192 23.8548 168.188C21.88 170.183 20.0157 172.211 18.266 174.269C16.5864 172.269 15.0158 170.242 13.5577 168.188C15.0158 166.133 16.5864 164.106 18.266 162.106ZM13.2519 168.621C14.7053 170.66 16.2687 172.672 17.9384 174.656C16.2687 176.64 14.7053 178.653 13.2519 180.691C11.8587 178.704 10.5708 176.691 9.39136 174.656C10.5708 172.621 11.8587 170.609 13.2519 168.621ZM9.10336 175.157C10.2796 177.17 11.5612 179.16 12.9447 181.125C11.5612 183.09 10.2796 185.08 9.10336 187.093C7.98177 185.124 6.96164 183.134 6.0459 181.125C6.96164 179.116 7.98177 177.126 9.10336 175.157ZM5.77291 181.732C6.68723 183.705 7.7015 185.66 8.81286 187.594C7.7015 189.527 6.68723 191.482 5.77291 193.456C4.91227 191.519 4.1485 189.565 3.48423 187.594C4.1485 185.623 4.91227 183.668 5.77291 181.732ZM3.22431 188.382C3.88947 190.292 4.64731 192.186 5.4954 194.062C4.64731 195.939 3.88947 197.833 3.22431 199.743C2.61771 197.864 2.10144 195.97 1.67778 194.062C2.10144 192.155 2.61771 190.261 3.22431 188.382ZM1.43191 195.223C1.86024 197.005 2.36875 198.775 2.95554 200.531C2.36875 202.288 1.86024 204.057 1.43191 205.84C1.07707 204.081 0.80083 202.312 0.604956 200.531C0.80083 198.751 1.07707 196.981 1.43191 195.223ZM0.397255 202.83C0.604328 204.227 0.860482 205.617 1.16484 207C0.860482 208.383 0.604327 209.773 0.397255 211.17C0.299356 209.786 0.25 208.396 0.25 207C0.25 205.604 0.299356 204.214 0.397255 202.83ZM1.16484 194.062C0.860482 195.445 0.604327 196.835 0.397255 198.233C0.299356 196.848 0.25 195.458 0.25 194.062C0.25 192.667 0.299356 191.277 0.397255 189.892C0.604328 191.29 0.860482 192.68 1.16484 194.062ZM1.43191 192.902C1.07707 191.144 0.80083 189.374 0.604956 187.594C0.80083 185.813 1.07707 184.044 1.43191 182.285C1.86024 184.068 2.36875 185.837 2.95554 187.594C2.36875 189.35 1.86024 191.12 1.43191 192.902ZM1.16484 181.125C0.860482 182.508 0.604327 183.898 0.397255 185.295C0.299356 183.911 0.25 182.521 0.25 181.125C0.25 179.729 0.299356 178.339 0.397255 176.955C0.604328 178.352 0.860482 179.742 1.16484 181.125ZM3.22431 186.806C2.61771 184.927 2.10144 183.033 1.67778 181.125C2.10144 179.217 2.61771 177.323 3.22431 175.444C3.88947 177.354 4.64731 179.248 5.4954 181.125C4.64731 183.002 3.88947 184.896 3.22431 186.806ZM2.95554 174.656C2.36875 176.413 1.86024 178.182 1.43191 179.965C1.07707 178.206 0.80083 176.437 0.604956 174.656C0.80083 172.876 1.07707 171.106 1.43191 169.348C1.86024 171.13 2.36875 172.9 2.95554 174.656ZM5.77291 180.518C4.91227 178.582 4.1485 176.627 3.48423 174.656C4.1485 172.685 4.91227 170.731 5.77291 168.794C6.68723 170.768 7.7015 172.723 8.81286 174.656C7.7015 176.59 6.68723 178.545 5.77291 180.518ZM5.4954 168.188C4.64731 170.064 3.88947 171.958 3.22431 173.868C2.61771 171.989 2.10144 170.095 1.67778 168.188C2.10144 166.28 2.61771 164.386 3.22431 162.507C3.88947 164.417 4.64731 166.311 5.4954 168.188ZM9.10336 174.155C7.98177 172.186 6.96164 170.197 6.0459 168.188C6.96164 166.178 7.98177 164.189 9.10336 162.22C10.2796 164.232 11.5612 166.222 12.9447 168.188C11.5612 170.153 10.2796 172.143 9.10336 174.155ZM8.81286 161.719C7.7015 163.652 6.68723 165.607 5.77291 167.581C4.91227 165.644 4.1485 163.69 3.48423 161.719C4.1485 159.748 4.91227 157.793 5.77291 155.857C6.68723 157.83 7.7015 159.785 8.81286 161.719ZM13.2519 167.754C11.8587 165.766 10.5708 163.754 9.39136 161.719C10.5708 159.684 11.8587 157.671 13.2519 155.684C14.7053 157.722 16.2687 159.735 17.9384 161.719C16.2687 163.703 14.7053 165.715 13.2519 167.754ZM12.9447 155.25C11.5612 157.215 10.2796 159.205 9.10336 161.218C7.98177 159.249 6.96164 157.259 6.0459 155.25C6.96164 153.241 7.98177 151.251 9.10336 149.282C10.2796 151.295 11.5612 153.285 12.9447 155.25ZM5.77291 142.919C6.68723 144.893 7.7015 146.848 8.81286 148.781C7.7015 150.715 6.68723 152.67 5.77291 154.643C4.91227 152.707 4.1485 150.752 3.48423 148.781C4.1485 146.81 4.91227 144.856 5.77291 142.919ZM3.22431 149.569C3.88947 151.479 4.64731 153.373 5.4954 155.25C4.64731 157.127 3.88947 159.021 3.22431 160.931C2.61771 159.052 2.10144 157.158 1.67778 155.25C2.10144 153.342 2.61771 151.448 3.22431 149.569ZM1.43191 156.41C1.86024 158.193 2.36875 159.962 2.95554 161.719C2.36875 163.475 1.86024 165.245 1.43191 167.027C1.07707 165.269 0.80083 163.499 0.604956 161.719C0.80083 159.938 1.07707 158.169 1.43191 156.41ZM0.397255 164.017C0.604328 165.415 0.860482 166.805 1.16484 168.188C0.860482 169.57 0.604327 170.96 0.397255 172.358C0.299356 170.973 0.25 169.583 0.25 168.188C0.25 166.792 0.299356 165.402 0.397255 164.017ZM1.16484 155.25C0.860482 156.633 0.604327 158.023 0.397255 159.42C0.299356 158.036 0.25 156.646 0.25 155.25C0.25 153.854 0.299356 152.464 0.397255 151.08C0.604328 152.477 0.860482 153.867 1.16484 155.25ZM1.43191 154.09C1.07707 152.331 0.80083 150.562 0.604956 148.781C0.80083 147.001 1.07707 145.231 1.43191 143.473C1.86024 145.255 2.36875 147.025 2.95554 148.781C2.36875 150.538 1.86024 152.307 1.43191 154.09ZM1.16484 142.312C0.860482 143.695 0.604327 145.085 0.397255 146.483C0.299356 145.098 0.25 143.708 0.25 142.312C0.25 140.917 0.299356 139.527 0.397255 138.142C0.604328 139.54 0.860482 140.93 1.16484 142.312ZM3.22431 147.993C2.61771 146.114 2.10144 144.22 1.67778 142.312C2.10144 140.405 2.61771 138.511 3.22431 136.632C3.88947 138.542 4.64731 140.436 5.4954 142.312C4.64731 144.189 3.88947 146.083 3.22431 147.993ZM2.95554 135.844C2.36875 137.6 1.86024 139.37 1.43191 141.152C1.07707 139.394 0.80083 137.624 0.604956 135.844C0.80083 134.063 1.07707 132.294 1.43191 130.535C1.86024 132.318 2.36875 134.087 2.95554 135.844ZM0.397255 125.205C0.604328 126.602 0.860482 127.992 1.16484 129.375C0.860482 130.758 0.604327 132.148 0.397255 133.545C0.299356 132.161 0.25 130.771 0.25 129.375C0.25 127.979 0.299356 126.589 0.397255 125.205ZM464.585 142.312C464.889 140.93 465.146 139.54 465.353 138.142C465.451 139.527 465.5 140.917 465.5 142.312C465.5 143.708 465.451 145.098 465.353 146.483C465.146 145.085 464.889 143.695 464.585 142.312ZM464.318 143.473C464.673 145.231 464.949 147.001 465.145 148.781C464.949 150.562 464.673 152.331 464.318 154.09C463.89 152.307 463.381 150.538 462.794 148.781C463.381 147.025 463.89 145.255 464.318 143.473ZM464.585 155.25C464.889 153.867 465.146 152.477 465.353 151.08C465.451 152.464 465.5 153.854 465.5 155.25C465.5 156.646 465.451 158.036 465.353 159.42C465.146 158.023 464.889 156.633 464.585 155.25ZM462.526 149.569C463.132 151.448 463.649 153.342 464.072 155.25C463.649 157.158 463.132 159.052 462.526 160.931C461.861 159.021 461.103 157.127 460.255 155.25C461.103 153.373 461.861 151.479 462.526 149.569ZM462.794 161.719C463.381 159.962 463.89 158.193 464.318 156.41C464.673 158.169 464.949 159.938 465.145 161.719C464.949 163.499 464.673 165.269 464.318 167.027C463.89 165.245 463.381 163.475 462.794 161.719ZM459.977 155.857C460.838 157.793 461.602 159.748 462.266 161.719C461.602 163.69 460.838 165.644 459.977 167.581C459.063 165.607 458.048 163.652 456.937 161.719C458.048 159.785 459.063 157.83 459.977 155.857ZM460.255 168.188C461.103 166.311 461.861 164.417 462.526 162.507C463.132 164.386 463.649 166.28 464.072 168.188C463.649 170.095 463.132 171.989 462.526 173.868C461.861 171.958 461.103 170.064 460.255 168.188ZM456.647 162.22C457.768 164.189 458.788 166.178 459.704 168.188C458.788 170.197 457.768 172.186 456.647 174.155C455.47 172.143 454.189 170.153 452.805 168.188C454.189 166.222 455.47 164.232 456.647 162.22ZM456.937 174.656C458.048 172.723 459.063 170.768 459.977 168.794C460.838 170.731 461.602 172.685 462.266 174.656C461.602 176.627 460.838 178.582 459.977 180.518C459.063 178.545 458.048 176.59 456.937 174.656ZM452.498 168.621C453.891 170.609 455.179 172.621 456.359 174.656C455.179 176.691 453.891 178.704 452.498 180.691C451.045 178.653 449.481 176.64 447.812 174.656C449.481 172.672 451.045 170.66 452.498 168.621ZM452.805 181.125C454.189 179.16 455.47 177.17 456.647 175.157C457.768 177.126 458.788 179.116 459.704 181.125C458.788 183.134 457.768 185.124 456.647 187.093C455.47 185.08 454.189 183.09 452.805 181.125ZM447.484 175.044C449.164 177.043 450.734 179.071 452.192 181.125C450.734 183.179 449.164 185.207 447.484 187.206C445.734 185.148 443.87 183.12 441.895 181.125C443.87 179.13 445.734 177.102 447.484 175.044ZM447.812 187.594C449.481 185.61 451.045 183.597 452.498 181.559C453.891 183.546 455.179 185.559 456.359 187.594C455.179 189.629 453.891 191.641 452.498 193.629C451.045 191.59 449.481 189.578 447.812 187.594ZM441.543 181.479C443.528 183.486 445.401 185.524 447.157 187.594C445.401 189.663 443.528 191.702 441.543 193.708C439.472 191.634 437.282 189.595 434.977 187.594C437.282 185.593 439.472 183.554 441.543 181.479ZM441.895 194.062C443.87 192.067 445.734 190.039 447.484 187.981C449.164 189.981 450.734 192.008 452.192 194.062C450.734 196.117 449.164 198.144 447.484 200.144C445.734 198.086 443.87 196.058 441.895 194.062ZM434.595 187.924C436.912 189.933 439.113 191.98 441.191 194.062C439.113 196.145 436.912 198.192 434.595 200.201C432.171 198.113 429.622 196.066 426.952 194.062C429.622 192.059 432.171 190.012 434.595 187.924ZM434.977 200.531C437.282 198.53 439.472 196.491 441.543 194.417C443.528 196.423 445.401 198.462 447.157 200.531C445.401 202.601 443.528 204.639 441.543 206.646C439.472 204.571 437.282 202.532 434.977 200.531ZM426.535 194.374C429.218 196.384 431.78 198.437 434.213 200.531C431.78 202.626 429.218 204.679 426.535 206.688C423.714 204.586 420.76 202.533 417.679 200.531C420.76 198.53 423.714 196.476 426.535 194.374ZM426.952 207C429.622 204.997 432.171 202.95 434.595 200.861C436.912 202.871 439.113 204.918 441.191 207C439.113 209.082 436.912 211.129 434.595 213.139C432.171 211.05 429.622 209.003 426.952 207ZM417.22 200.829C420.317 202.835 423.284 204.893 426.117 207C423.284 209.107 420.317 211.165 417.22 213.171C413.941 211.055 410.52 208.996 406.964 207C410.52 205.004 413.941 202.945 417.22 200.829ZM417.679 213.469C420.76 211.467 423.714 209.414 426.535 207.312C429.218 209.321 431.78 211.374 434.213 213.469C431.78 215.563 429.218 217.616 426.535 219.626C423.714 217.524 420.76 215.47 417.679 213.469ZM406.453 207.286C410.028 209.287 413.466 211.349 416.76 213.469C413.466 215.589 410.028 217.651 406.453 219.651C403.604 218.062 400.67 216.513 397.654 215.005C396.62 214.488 395.577 213.976 394.523 213.469C395.577 212.962 396.62 212.449 397.654 211.932C400.67 210.424 403.604 208.875 406.453 207.286ZM406.964 219.938C410.52 217.941 413.941 215.883 417.22 213.766C420.317 215.773 423.284 217.831 426.117 219.938C423.284 222.044 420.317 224.102 417.22 226.109C413.941 223.992 410.52 221.934 406.964 219.938ZM426.535 232.563C423.714 230.461 420.76 228.408 417.679 226.406C420.76 224.405 423.714 222.351 426.535 220.249C429.218 222.259 431.78 224.312 434.213 226.406C431.78 228.501 429.218 230.554 426.535 232.563ZM434.595 226.076C432.171 223.988 429.622 221.941 426.952 219.938C429.622 217.934 432.171 215.887 434.595 213.799C436.912 215.808 439.113 217.855 441.191 219.938C439.113 222.02 436.912 224.067 434.595 226.076ZM441.543 219.583C439.472 217.509 437.282 215.47 434.977 213.469C437.282 211.468 439.472 209.429 441.543 207.354C443.528 209.361 445.401 211.399 447.157 213.469C445.401 215.538 443.528 217.577 441.543 219.583ZM447.484 213.081C445.734 211.023 443.87 208.995 441.895 207C443.87 205.005 445.734 202.977 447.484 200.919C449.164 202.918 450.734 204.946 452.192 207C450.734 209.054 449.164 211.082 447.484 213.081ZM452.498 206.566C451.045 204.528 449.481 202.515 447.812 200.531C449.481 198.547 451.045 196.535 452.498 194.496C453.891 196.484 455.179 198.496 456.359 200.531C455.179 202.566 453.891 204.579 452.498 206.566ZM456.647 200.03C455.47 198.018 454.189 196.028 452.805 194.062C454.189 192.097 455.47 190.107 456.647 188.095C457.768 190.064 458.788 192.053 459.704 194.062C458.788 196.072 457.768 198.061 456.647 200.03ZM459.977 193.456C459.063 191.482 458.048 189.527 456.937 187.594C458.048 185.66 459.063 183.705 459.977 181.732C460.838 183.668 461.602 185.623 462.266 187.594C461.602 189.565 460.838 191.519 459.977 193.456ZM462.526 186.806C461.861 184.896 461.103 183.002 460.255 181.125C461.103 179.248 461.861 177.354 462.526 175.444C463.132 177.323 463.649 179.217 464.072 181.125C463.649 183.033 463.132 184.927 462.526 186.806ZM464.318 179.965C463.89 178.182 463.381 176.413 462.794 174.656C463.381 172.9 463.89 171.13 464.318 169.348C464.673 171.106 464.949 172.876 465.145 174.656C464.949 176.437 464.673 178.206 464.318 179.965ZM465.353 172.358C465.146 170.96 464.889 169.57 464.585 168.188C464.889 166.805 465.146 165.415 465.353 164.017C465.451 165.402 465.5 166.792 465.5 168.188C465.5 169.583 465.451 170.973 465.353 172.358ZM464.585 181.125C464.889 179.742 465.146 178.352 465.353 176.955C465.451 178.339 465.5 179.729 465.5 181.125C465.5 182.521 465.451 183.911 465.353 185.295C465.146 183.898 464.889 182.508 464.585 181.125ZM464.318 182.285C464.673 184.044 464.949 185.813 465.145 187.594C464.949 189.374 464.673 191.144 464.318 192.902C463.89 191.12 463.381 189.35 462.794 187.594C463.381 185.837 463.89 184.068 464.318 182.285ZM464.585 194.062C464.889 192.68 465.146 191.29 465.353 189.892C465.451 191.277 465.5 192.667 465.5 194.062C465.5 195.458 465.451 196.848 465.353 198.233C465.146 196.835 464.889 195.445 464.585 194.062ZM462.526 188.382C463.132 190.261 463.649 192.155 464.072 194.062C463.649 195.97 463.132 197.864 462.526 199.743C461.861 197.833 461.103 195.939 460.255 194.062C461.103 192.186 461.861 190.292 462.526 188.382ZM462.794 200.531C463.381 198.775 463.89 197.005 464.318 195.223C464.673 196.981 464.949 198.751 465.145 200.531C464.949 202.312 464.673 204.081 464.318 205.84C463.89 204.057 463.381 202.288 462.794 200.531ZM459.977 194.669C460.838 196.606 461.602 198.56 462.266 200.531C461.602 202.502 460.838 204.457 459.977 206.393C459.063 204.42 458.048 202.465 456.937 200.531C458.048 198.598 459.063 196.643 459.977 194.669ZM460.255 207C461.103 205.123 461.861 203.229 462.526 201.319C463.132 203.198 463.649 205.092 464.072 207C463.649 208.908 463.132 210.802 462.526 212.681C461.861 210.771 461.103 208.877 460.255 207ZM456.647 201.032C457.768 203.001 458.788 204.991 459.704 207C458.788 209.009 457.768 210.999 456.647 212.968C455.47 210.955 454.189 208.965 452.805 207C454.189 205.035 455.47 203.045 456.647 201.032ZM456.937 213.469C458.048 211.535 459.063 209.58 459.977 207.607C460.838 209.543 461.602 211.498 462.266 213.469C461.602 215.44 460.838 217.394 459.977 219.331C459.063 217.357 458.048 215.402 456.937 213.469ZM452.498 207.434C453.891 209.421 455.179 211.434 456.359 213.469C455.179 215.504 453.891 217.516 452.498 219.504C451.045 217.465 449.481 215.453 447.812 213.469C449.481 211.485 451.045 209.472 452.498 207.434ZM452.805 219.938C454.189 217.972 455.47 215.982 456.647 213.97C457.768 215.939 458.788 217.928 459.704 219.938C458.788 221.947 457.768 223.936 456.647 225.905C455.47 223.893 454.189 221.903 452.805 219.938ZM447.484 213.856C449.164 215.856 450.734 217.883 452.192 219.938C450.734 221.992 449.164 224.019 447.484 226.019C445.734 223.961 443.87 221.933 441.895 219.938C443.87 217.942 445.734 215.914 447.484 213.856ZM447.812 226.406C449.481 224.422 451.045 222.41 452.498 220.371C453.891 222.359 455.179 224.371 456.359 226.406C455.179 228.441 453.891 230.454 452.498 232.441C451.045 230.403 449.481 228.39 447.812 226.406ZM441.543 220.292C443.528 222.298 445.401 224.337 447.157 226.406C445.401 228.476 443.528 230.514 441.543 232.521C439.472 230.446 437.282 228.407 434.977 226.406C437.282 224.405 439.472 222.366 441.543 220.292ZM441.895 232.875C443.87 230.88 445.734 228.852 447.484 226.794C449.164 228.793 450.734 230.821 452.192 232.875C450.734 234.929 449.164 236.957 447.484 238.956C445.734 236.898 443.87 234.87 441.895 232.875ZM434.595 226.736C436.912 228.746 439.113 230.793 441.191 232.875C439.113 234.957 436.912 237.004 434.595 239.014C432.171 236.925 429.622 234.878 426.952 232.875C429.622 230.872 432.171 228.825 434.595 226.736ZM434.977 239.344C437.282 237.343 439.472 235.304 441.543 233.229C443.528 235.236 445.401 237.274 447.157 239.344C445.401 241.413 443.528 243.452 441.543 245.458C439.472 243.384 437.282 241.345 434.977 239.344ZM447.484 251.894C445.734 249.836 443.87 247.808 441.895 245.812C443.87 243.817 445.734 241.789 447.484 239.731C449.164 241.731 450.734 243.758 452.192 245.812C450.734 247.867 449.164 249.894 447.484 251.894ZM452.498 245.379C451.045 243.34 449.481 241.328 447.812 239.344C449.481 237.36 451.045 235.347 452.498 233.309C453.891 235.296 455.179 237.309 456.359 239.344C455.179 241.379 453.891 243.391 452.498 245.379ZM456.647 238.843C455.47 236.83 454.189 234.84 452.805 232.875C454.189 230.91 455.47 228.92 456.647 226.907C457.768 228.876 458.788 230.866 459.704 232.875C458.788 234.884 457.768 236.874 456.647 238.843ZM459.977 232.268C459.063 230.295 458.048 228.34 456.937 226.406C458.048 224.473 459.063 222.518 459.977 220.544C460.838 222.481 461.602 224.435 462.266 226.406C461.602 228.377 460.838 230.332 459.977 232.268ZM462.526 225.618C461.861 223.708 461.103 221.814 460.255 219.938C461.103 218.061 461.861 216.167 462.526 214.257C463.132 216.136 463.649 218.03 464.072 219.938C463.649 221.845 463.132 223.739 462.526 225.618ZM464.318 218.777C463.89 216.995 463.381 215.225 462.794 213.469C463.381 211.712 463.89 209.943 464.318 208.16C464.673 209.919 464.949 211.688 465.145 213.469C464.949 215.249 464.673 217.019 464.318 218.777ZM465.353 211.17C465.146 209.773 464.889 208.383 464.585 207C464.889 205.617 465.146 204.227 465.353 202.83C465.451 204.214 465.5 205.604 465.5 207C465.5 208.396 465.451 209.786 465.353 211.17ZM464.585 219.938C464.889 218.555 465.146 217.165 465.353 215.767C465.451 217.152 465.5 218.542 465.5 219.938C465.5 221.333 465.451 222.723 465.353 224.108C465.146 222.71 464.889 221.32 464.585 219.938ZM464.318 221.098C464.673 222.856 464.949 224.626 465.145 226.406C464.949 228.187 464.673 229.956 464.318 231.715C463.89 229.932 463.381 228.163 462.794 226.406C463.381 224.65 463.89 222.88 464.318 221.098ZM464.585 232.875C464.889 231.492 465.146 230.102 465.353 228.705C465.451 230.089 465.5 231.479 465.5 232.875C465.5 234.271 465.451 235.661 465.353 237.045C465.146 235.648 464.889 234.258 464.585 232.875ZM462.526 227.194C463.132 229.073 463.649 230.967 464.072 232.875C463.649 234.783 463.132 236.677 462.526 238.556C461.861 236.646 461.103 234.752 460.255 232.875C461.103 230.998 461.861 229.104 462.526 227.194ZM462.794 239.344C463.381 237.587 463.89 235.818 464.318 234.035C464.673 235.794 464.949 237.563 465.145 239.344C464.949 241.124 464.673 242.894 464.318 244.652C463.89 242.87 463.381 241.1 462.794 239.344ZM459.977 233.482C460.838 235.418 461.602 237.373 462.266 239.344C461.602 241.315 460.838 243.269 459.977 245.206C459.063 243.232 458.048 241.277 456.937 239.344C458.048 237.41 459.063 235.455 459.977 233.482ZM460.255 245.812C461.103 243.936 461.861 242.042 462.526 240.132C463.132 242.011 463.649 243.905 464.072 245.812C463.649 247.72 463.132 249.614 462.526 251.493C461.861 249.583 461.103 247.689 460.255 245.812ZM456.647 239.845C457.768 241.814 458.788 243.803 459.704 245.812C458.788 247.822 457.768 249.811 456.647 251.78C455.47 249.768 454.189 247.778 452.805 245.812C454.189 243.847 455.47 241.857 456.647 239.845ZM456.937 252.281C458.048 250.348 459.063 248.393 459.977 246.419C460.838 248.356 461.602 250.31 462.266 252.281C461.602 254.252 460.838 256.207 459.977 258.143C459.063 256.17 458.048 254.215 456.937 252.281ZM452.498 246.246C453.891 248.234 455.179 250.246 456.359 252.281C455.179 254.316 453.891 256.329 452.498 258.316C451.045 256.278 449.481 254.265 447.812 252.281C449.481 250.297 451.045 248.285 452.498 246.246ZM452.805 258.75C454.189 256.785 455.47 254.795 456.647 252.782C457.768 254.751 458.788 256.741 459.704 258.75C458.788 260.759 457.768 262.749 456.647 264.718C455.47 262.705 454.189 260.715 452.805 258.75ZM459.977 271.081C459.063 269.107 458.048 267.152 456.937 265.219C458.048 263.285 459.063 261.33 459.977 259.357C460.838 261.293 461.602 263.248 462.266 265.219C461.602 267.19 460.838 269.144 459.977 271.081ZM462.526 264.431C461.861 262.521 461.103 260.627 460.255 258.75C461.103 256.873 461.861 254.979 462.526 253.069C463.132 254.948 463.649 256.842 464.072 258.75C463.649 260.658 463.132 262.552 462.526 264.431ZM464.318 257.59C463.89 255.807 463.381 254.038 462.794 252.281C463.381 250.525 463.89 248.755 464.318 246.973C464.673 248.731 464.949 250.501 465.145 252.281C464.949 254.062 464.673 255.831 464.318 257.59ZM465.353 249.983C465.146 248.585 464.889 247.195 464.585 245.812C464.889 244.43 465.146 243.04 465.353 241.642C465.451 243.027 465.5 244.417 465.5 245.812C465.5 247.208 465.451 248.598 465.353 249.983ZM464.585 258.75C464.889 257.367 465.146 255.977 465.353 254.58C465.451 255.964 465.5 257.354 465.5 258.75C465.5 260.146 465.451 261.536 465.353 262.92C465.146 261.523 464.889 260.133 464.585 258.75ZM464.318 259.91C464.673 261.669 464.949 263.438 465.145 265.219C464.949 266.999 464.673 268.769 464.318 270.527C463.89 268.745 463.381 266.975 462.794 265.219C463.381 263.462 463.89 261.693 464.318 259.91ZM464.585 271.688C464.889 270.305 465.146 268.915 465.353 267.517C465.451 268.902 465.5 270.292 465.5 271.688C465.5 273.083 465.451 274.473 465.353 275.858C465.146 274.46 464.889 273.07 464.585 271.688ZM462.526 266.007C463.132 267.886 463.649 269.78 464.072 271.688C463.649 273.595 463.132 275.489 462.526 277.368C461.861 275.458 461.103 273.564 460.255 271.688C461.103 269.811 461.861 267.917 462.526 266.007ZM462.794 278.156C463.381 276.4 463.89 274.63 464.318 272.848C464.673 274.606 464.949 276.376 465.145 278.156C464.949 279.937 464.673 281.706 464.318 283.465C463.89 281.682 463.381 279.913 462.794 278.156ZM465.353 288.795C465.146 287.398 464.889 286.008 464.585 284.625C464.889 283.242 465.146 281.852 465.353 280.455C465.451 281.839 465.5 283.229 465.5 284.625C465.5 286.021 465.451 287.411 465.353 288.795ZM465.353 293.392C465.451 294.777 465.5 296.167 465.5 297.562C465.5 329.57 439.546 358.615 397.431 379.673C355.33 400.723 297.151 413.75 232.875 413.75C168.599 413.75 110.42 400.723 68.3193 379.673C26.2038 358.615 0.25 329.57 0.25 297.562C0.25 296.167 0.299356 294.777 0.397255 293.392C4.66478 322.185 29.7782 348.024 68.0957 367.182C110.279 388.274 168.538 401.312 232.875 401.312C297.212 401.312 355.471 388.274 397.654 367.182C435.972 348.024 461.085 322.185 465.353 293.392ZM405.939 219.938C403.183 221.47 400.345 222.965 397.431 224.423C355.33 245.473 297.151 258.5 232.875 258.5C168.599 258.5 110.42 245.473 68.3193 224.423C65.4046 222.965 62.5673 221.47 59.8107 219.938C62.5673 218.405 65.4046 216.91 68.3193 215.452C69.469 214.878 70.6306 214.309 71.804 213.746C113.662 233.769 170.403 246.062 232.875 246.062C295.347 246.062 352.088 233.769 393.946 213.746C395.119 214.309 396.281 214.878 397.431 215.452C400.345 216.91 403.183 218.405 405.939 219.938Z" stroke="url(#paint0_linear_583_9993)" stroke-width="0.5"/>
<defs>
<linearGradient id="paint0_linear_583_9993" x1="232.875" y1="181.125" x2="232.875" y2="414" gradientUnits="userSpaceOnUse">
<stop stop-color="white"/>
<stop offset="1" stop-color="#807D7D" stop-opacity="0.54"/>
</linearGradient>
</defs>
</svg>
