<svg width="67" height="67" viewBox="0 0 67 67" fill="none" xmlns="http://www.w3.org/2000/svg">
<circle cx="33.3156" cy="33.3154" r="32.25" stroke="#030303"/>
<path d="M10.8713 56.1342L10.8597 56.1402L10.8485 56.1469C10.7928 56.1799 10.7277 56.1934 10.6635 56.1853C10.5993 56.1772 10.5396 56.148 10.4938 56.1022C10.448 56.0564 10.4188 55.9967 10.4107 55.9325C10.4026 55.8683 10.4161 55.8032 10.4491 55.7475L10.4559 55.736L10.4621 55.7241C15.209 46.6333 17.6719 40.0372 17.6942 33.3827C17.7165 26.7271 15.2972 20.0864 10.4613 10.9053L10.4555 10.8942L10.4491 10.8835C10.4161 10.8278 10.4026 10.7627 10.4107 10.6985C10.4188 10.6342 10.448 10.5745 10.4938 10.5288C10.5396 10.483 10.5993 10.4538 10.6635 10.4457C10.7277 10.4376 10.7928 10.4511 10.8485 10.4841L10.8595 10.4906L10.8709 10.4966C19.9477 15.2628 26.5874 17.6812 33.2724 17.6723C39.9568 17.6634 46.6136 15.2276 55.7245 10.462L55.7362 10.4558L55.7475 10.4491C55.8032 10.4161 55.8683 10.4026 55.9325 10.4107C55.9967 10.4188 56.0564 10.448 56.1022 10.4938C56.148 10.5396 56.1772 10.5993 56.1853 10.6635C56.1934 10.7277 56.1799 10.7928 56.1469 10.8485L56.1404 10.8593L56.1346 10.8705C51.351 19.9645 48.915 26.6217 48.915 33.3155C48.915 40.0092 51.351 46.6664 56.1346 55.7604L56.1404 55.7716L56.1469 55.7825C56.1799 55.8382 56.1934 55.9033 56.1853 55.9675C56.1772 56.0317 56.148 56.0914 56.1022 56.1372C56.0564 56.1829 55.9967 56.2122 55.9325 56.2203C55.8683 56.2284 55.8032 56.2148 55.7475 56.1819L55.7362 56.1751L55.7245 56.169C46.6161 51.4046 40.0198 48.9416 33.3653 48.9193C26.7098 48.897 20.0693 51.3162 10.8713 56.1342Z" stroke="#030303"/>
<rect x="10.4788" y="33.444" width="32.6597" height="32.4778" transform="rotate(-45 10.4788 33.444)" stroke="#030303"/>
<path d="M10.1577 10.1577L56.4732 56.4731" stroke="#030303"/>
<path d="M56.4733 10.1577L10.1578 56.4731" stroke="#030303"/>
<circle cx="33.5" cy="33.4999" r="2.5" fill="#FF6338"/>
<circle cx="50" cy="39.9999" r="2" fill="#FF6338"/>
<circle cx="39.8284" cy="16.8283" r="2" transform="rotate(-45 39.8284 16.8283)" fill="#FF6338"/>
<circle cx="22" cy="44.9999" r="2" fill="#FF6338"/>
<circle cx="21.8284" cy="21.8284" r="2" transform="rotate(45 21.8284 21.8284)" fill="#FF6338"/>
</svg>
