<svg width="1360" height="946" viewBox="0 0 1360 946" fill="none" xmlns="http://www.w3.org/2000/svg">
<g clip-path="url(#clip0_583_9708)">
<path d="M0 345.062H1359.03" stroke="#373737" stroke-dasharray="1 1"/>
<path d="M0 354.904H1359.03" stroke="#373737" stroke-dasharray="1 1"/>
<path d="M0 364.745H1359.03" stroke="#373737" stroke-dasharray="1 1"/>
<path d="M0 374.586H1359.03" stroke="#373737" stroke-dasharray="1 1"/>
<path d="M0 384.428H1359.03" stroke="#373737" stroke-dasharray="1 1"/>
<path d="M0 394.269H1359.03" stroke="#373737" stroke-dasharray="1 1"/>
<path d="M0 404.11H1359.03" stroke="#373737" stroke-dasharray="1 1"/>
<path d="M0 413.952H1359.03" stroke="#373737" stroke-dasharray="1 1"/>
<path d="M0 423.793H1359.03" stroke="#373737" stroke-dasharray="1 1"/>
<path d="M0 433.635H1359.03" stroke="#373737" stroke-dasharray="1 1"/>
<path d="M0 443.476H1359.03" stroke="#373737" stroke-dasharray="1 1"/>
<path d="M0 453.317H1359.03" stroke="#373737" stroke-dasharray="1 1"/>
<path d="M0 463.159H1359.03" stroke="#373737" stroke-dasharray="1 1"/>
<path d="M0 473H1359.03" stroke="#373737" stroke-dasharray="1 1"/>
<path d="M0 482.841H1359.03" stroke="#373737" stroke-dasharray="1 1"/>
<path d="M0 492.683H1359.03" stroke="#373737" stroke-dasharray="1 1"/>
<path d="M0 502.524H1359.03" stroke="#373737" stroke-dasharray="1 1"/>
<path d="M0 512.365H1359.03" stroke="#373737" stroke-dasharray="1 1"/>
<path d="M0 522.207H1359.03" stroke="#373737" stroke-dasharray="1 1"/>
<path d="M0 532.048H1359.03" stroke="#373737" stroke-dasharray="1 1"/>
<path d="M0 541.89H1359.03" stroke="#373737" stroke-dasharray="1 1"/>
<path d="M0 551.731H1359.03" stroke="#373737" stroke-dasharray="1 1"/>
<path d="M0 561.572H1359.03" stroke="#373737" stroke-dasharray="1 1"/>
<path d="M0 571.414H1359.03" stroke="#373737" stroke-dasharray="1 1"/>
<path d="M0 581.255H1359.03" stroke="#373737" stroke-dasharray="1 1"/>
<path d="M0 591.096H1359.03" stroke="#373737" stroke-dasharray="1 1"/>
<path d="M0 600.938H1359.03" stroke="#373737" stroke-dasharray="1 1"/>
<path d="M0 610.779H1359.03" stroke="#373737" stroke-dasharray="1 1"/>
<path d="M0 620.62H1359.03" stroke="#373737" stroke-dasharray="1 1"/>
<path d="M0 630.462H1359.03" stroke="#373737" stroke-dasharray="1 1"/>
<path d="M0 640.303H1359.03" stroke="#373737" stroke-dasharray="1 1"/>
<path d="M0 650.145H1359.03" stroke="#373737" stroke-dasharray="1 1"/>
<path d="M0 659.986H1359.03" stroke="#373737" stroke-dasharray="1 1"/>
<path d="M0 669.827H1359.03" stroke="#373737" stroke-dasharray="1 1"/>
<path d="M0 679.668H1359.03" stroke="#373737" stroke-dasharray="1 1"/>
<path d="M0 689.51H1359.03" stroke="#373737" stroke-dasharray="1 1"/>
<path d="M0 699.351H1359.03" stroke="#373737" stroke-dasharray="1 1"/>
<path d="M0 709.192H1359.03" stroke="#373737" stroke-dasharray="1 1"/>
<path d="M0 719.034H1359.03" stroke="#373737" stroke-dasharray="1 1"/>
<path d="M0 728.875H1359.03" stroke="#373737" stroke-dasharray="1 1"/>
<path d="M0 738.716H1359.03" stroke="#373737" stroke-dasharray="1 1"/>
<path d="M0 748.558H1359.03" stroke="#373737" stroke-dasharray="1 1"/>
<path d="M0 758.399H1359.03" stroke="#373737" stroke-dasharray="1 1"/>
<path d="M0 768.241H1359.03" stroke="#373737" stroke-dasharray="1 1"/>
<path d="M0 778.082H1359.03" stroke="#373737" stroke-dasharray="1 1"/>
<path d="M0 787.923H1359.03" stroke="#373737" stroke-dasharray="1 1"/>
<path d="M0 797.765H1359.03" stroke="#373737" stroke-dasharray="1 1"/>
<path d="M0 807.606H1359.03" stroke="#373737" stroke-dasharray="1 1"/>
<path d="M0 817.447H1359.03" stroke="#373737" stroke-dasharray="1 1"/>
<path d="M0 827.289H1359.03" stroke="#373737" stroke-dasharray="1 1"/>
<path d="M0 837.13H1359.03" stroke="#373737" stroke-dasharray="1 1"/>
<path d="M0 846.971H1359.03" stroke="#373737" stroke-dasharray="1 1"/>
<path d="M0 856.813H1359.03" stroke="#373737" stroke-dasharray="1 1"/>
<path d="M0 866.654H1359.03" stroke="#373737" stroke-dasharray="1 1"/>
<path d="M0 876.496H1359.03" stroke="#373737" stroke-dasharray="1 1"/>
<path d="M0 886.337H1359.03" stroke="#373737" stroke-dasharray="1 1"/>
<path d="M0 896.178H1359.03" stroke="#373737" stroke-dasharray="1 1"/>
<path d="M0 906.02H1359.03" stroke="#373737" stroke-dasharray="1 1"/>
<path d="M0 915.861H1359.03" stroke="#373737" stroke-dasharray="1 1"/>
<path d="M0 925.702H1359.03" stroke="#373737" stroke-dasharray="1 1"/>
<path d="M0 935.543H1359.03" stroke="#373737" stroke-dasharray="1 1"/>
<path d="M0 945.385H1359.03" stroke="#373737" stroke-dasharray="1 1"/>
<path d="M0 335.221H1359.03" stroke="#373737" stroke-dasharray="1 1"/>
<path d="M0 325.38H1359.03" stroke="#373737" stroke-dasharray="1 1"/>
<path d="M0 315.538H1359.03" stroke="#373737" stroke-dasharray="1 1"/>
<path d="M0 305.697H1359.03" stroke="#373737" stroke-dasharray="1 1"/>
<path d="M0 295.856H1359.03" stroke="#373737" stroke-dasharray="1 1"/>
<path d="M0 286.014H1359.03" stroke="#373737" stroke-dasharray="1 1"/>
<path d="M0 276.173H1359.03" stroke="#373737" stroke-dasharray="1 1"/>
<path d="M0 266.332H1359.03" stroke="#373737" stroke-dasharray="1 1"/>
<path d="M0 256.49H1359.03" stroke="#373737" stroke-dasharray="1 1"/>
<path d="M0 246.649H1359.03" stroke="#373737" stroke-dasharray="1 1"/>
<path d="M0 236.808H1359.03" stroke="#373737" stroke-dasharray="1 1"/>
<path d="M0 226.966H1359.03" stroke="#373737" stroke-dasharray="1 1"/>
<path d="M0 217.125H1359.03" stroke="#373737" stroke-dasharray="1 1"/>
<path d="M0 207.283H1359.03" stroke="#373737" stroke-dasharray="1 1"/>
<path d="M0 197.442H1359.03" stroke="#373737" stroke-dasharray="1 1"/>
<path d="M0 187.601H1359.03" stroke="#373737" stroke-dasharray="1 1"/>
<path d="M0 177.76H1359.03" stroke="#373737" stroke-dasharray="1 1"/>
<path d="M0 167.918H1359.03" stroke="#373737" stroke-dasharray="1 1"/>
<path d="M0 158.077H1359.03" stroke="#373737" stroke-dasharray="1 1"/>
<path d="M0 148.235H1359.03" stroke="#373737" stroke-dasharray="1 1"/>
<path d="M0 138.394H1359.03" stroke="#373737" stroke-dasharray="1 1"/>
<path d="M0 128.553H1359.03" stroke="#373737" stroke-dasharray="1 1"/>
<path d="M0 118.711H1359.03" stroke="#373737" stroke-dasharray="1 1"/>
<path d="M0 108.87H1359.03" stroke="#373737" stroke-dasharray="1 1"/>
<path d="M0 99.0286H1359.03" stroke="#373737" stroke-dasharray="1 1"/>
<path d="M0 89.1873H1359.03" stroke="#373737" stroke-dasharray="1 1"/>
<path d="M0 79.3459H1359.03" stroke="#373737" stroke-dasharray="1 1"/>
<path d="M0 69.5046H1359.03" stroke="#373737" stroke-dasharray="1 1"/>
<path d="M0 59.6631H1359.03" stroke="#373737" stroke-dasharray="1 1"/>
<path d="M0 49.8218H1359.03" stroke="#373737" stroke-dasharray="1 1"/>
<path d="M0 39.9805H1359.03" stroke="#373737" stroke-dasharray="1 1"/>
<path d="M0 30.1392H1359.03" stroke="#373737" stroke-dasharray="1 1"/>
<path d="M0 20.2979H1359.03" stroke="#373737" stroke-dasharray="1 1"/>
<path d="M0 10.4565H1359.03" stroke="#373737" stroke-dasharray="1 1"/>
<path d="M0 0.61499H1359.03" stroke="#373737" stroke-dasharray="1 1"/>
<path d="M0.482422 1.23022V946" stroke="#373737" stroke-dasharray="1 1"/>
<path d="M8.20459 1.23022V946" stroke="#373737" stroke-dasharray="1 1"/>
<path d="M15.9263 1.23022V946" stroke="#373737" stroke-dasharray="1 1"/>
<path d="M23.6479 1.23022V946" stroke="#373737" stroke-dasharray="1 1"/>
<path d="M31.3696 1.23022V946" stroke="#373737" stroke-dasharray="1 1"/>
<path d="M39.0918 1.23022V946" stroke="#373737" stroke-dasharray="1 1"/>
<path d="M46.8135 1.23022V946" stroke="#373737" stroke-dasharray="1 1"/>
<path d="M54.5352 1.23022V946" stroke="#373737" stroke-dasharray="1 1"/>
<path d="M62.2568 1.23022V946" stroke="#373737" stroke-dasharray="1 1"/>
<path d="M69.9785 1.23022V946" stroke="#373737" stroke-dasharray="1 1"/>
<path d="M77.7007 1.23022V946" stroke="#373737" stroke-dasharray="1 1"/>
<path d="M85.4224 1.23022V946" stroke="#373737" stroke-dasharray="1 1"/>
<path d="M93.144 1.23022V946" stroke="#373737" stroke-dasharray="1 1"/>
<path d="M100.866 1.23022V946" stroke="#373737" stroke-dasharray="1 1"/>
<path d="M108.588 1.23022V946" stroke="#373737" stroke-dasharray="1 1"/>
<path d="M116.31 1.23022V946" stroke="#373737" stroke-dasharray="1 1"/>
<path d="M124.031 1.23022V946" stroke="#373737" stroke-dasharray="1 1"/>
<path d="M131.753 1.23022V946" stroke="#373737" stroke-dasharray="1 1"/>
<path d="M139.475 1.23022V946" stroke="#373737" stroke-dasharray="1 1"/>
<path d="M147.197 1.23022V946" stroke="#373737" stroke-dasharray="1 1"/>
<path d="M154.918 1.23022V946" stroke="#373737" stroke-dasharray="1 1"/>
<path d="M162.64 1.23022V946" stroke="#373737" stroke-dasharray="1 1"/>
<path d="M170.362 1.23022V946" stroke="#373737" stroke-dasharray="1 1"/>
<path d="M178.084 1.23022V946" stroke="#373737" stroke-dasharray="1 1"/>
<path d="M185.806 1.23022V946" stroke="#373737" stroke-dasharray="1 1"/>
<path d="M193.527 1.23022V946" stroke="#373737" stroke-dasharray="1 1"/>
<path d="M201.249 1.23022V946" stroke="#373737" stroke-dasharray="1 1"/>
<path d="M208.971 1.23022V946" stroke="#373737" stroke-dasharray="1 1"/>
<path d="M216.693 1.23022V946" stroke="#373737" stroke-dasharray="1 1"/>
<path d="M224.415 1.23022V946" stroke="#373737" stroke-dasharray="1 1"/>
<path d="M232.136 1.23022V946" stroke="#373737" stroke-dasharray="1 1"/>
<path d="M239.858 1.23022V946" stroke="#373737" stroke-dasharray="1 1"/>
<path d="M247.58 1.23022V946" stroke="#373737" stroke-dasharray="1 1"/>
<path d="M255.302 1.23022V946" stroke="#373737" stroke-dasharray="1 1"/>
<path d="M263.023 1.23022V946" stroke="#373737" stroke-dasharray="1 1"/>
<path d="M270.745 1.23022V946" stroke="#373737" stroke-dasharray="1 1"/>
<path d="M278.467 1.23022V946" stroke="#373737" stroke-dasharray="1 1"/>
<path d="M286.189 1.23022V946" stroke="#373737" stroke-dasharray="1 1"/>
<path d="M293.911 1.23022V946" stroke="#373737" stroke-dasharray="1 1"/>
<path d="M301.632 1.23022V946" stroke="#373737" stroke-dasharray="1 1"/>
<path d="M309.354 1.23022V946" stroke="#373737" stroke-dasharray="1 1"/>
<path d="M317.076 1.23022V946" stroke="#373737" stroke-dasharray="1 1"/>
<path d="M324.798 1.23022V946" stroke="#373737" stroke-dasharray="1 1"/>
<path d="M332.52 1.23022V946" stroke="#373737" stroke-dasharray="1 1"/>
<path d="M340.241 1.23022V946" stroke="#373737" stroke-dasharray="1 1"/>
<path d="M347.963 1.23022V946" stroke="#373737" stroke-dasharray="1 1"/>
<path d="M355.685 1.23022V946" stroke="#373737" stroke-dasharray="1 1"/>
<path d="M363.407 1.23022V946" stroke="#373737" stroke-dasharray="1 1"/>
<path d="M371.128 1.23022V946" stroke="#373737" stroke-dasharray="1 1"/>
<path d="M378.85 1.23022V946" stroke="#373737" stroke-dasharray="1 1"/>
<path d="M386.572 1.23022V946" stroke="#373737" stroke-dasharray="1 1"/>
<path d="M394.294 1.23022V946" stroke="#373737" stroke-dasharray="1 1"/>
<path d="M402.016 1.23022V946" stroke="#373737" stroke-dasharray="1 1"/>
<path d="M409.737 1.23022V946" stroke="#373737" stroke-dasharray="1 1"/>
<path d="M417.459 1.23022V946" stroke="#373737" stroke-dasharray="1 1"/>
<path d="M425.181 1.23022V946" stroke="#373737" stroke-dasharray="1 1"/>
<path d="M432.903 1.23022V946" stroke="#373737" stroke-dasharray="1 1"/>
<path d="M440.625 1.23022V946" stroke="#373737" stroke-dasharray="1 1"/>
<path d="M448.346 1.23022V946" stroke="#373737" stroke-dasharray="1 1"/>
<path d="M456.068 1.23022V946" stroke="#373737" stroke-dasharray="1 1"/>
<path d="M463.79 1.23022V946" stroke="#373737" stroke-dasharray="1 1"/>
<path d="M471.512 1.23022V946" stroke="#373737" stroke-dasharray="1 1"/>
<path d="M479.233 1.23022V946" stroke="#373737" stroke-dasharray="1 1"/>
<path d="M486.955 1.23022V946" stroke="#373737" stroke-dasharray="1 1"/>
<path d="M494.677 1.23022V946" stroke="#373737" stroke-dasharray="1 1"/>
<path d="M502.399 1.23022V946" stroke="#373737" stroke-dasharray="1 1"/>
<path d="M510.121 1.23022V946" stroke="#373737" stroke-dasharray="1 1"/>
<path d="M517.842 1.23022V946" stroke="#373737" stroke-dasharray="1 1"/>
<path d="M525.564 1.23022V946" stroke="#373737" stroke-dasharray="1 1"/>
<path d="M533.286 1.23022V946" stroke="#373737" stroke-dasharray="1 1"/>
<path d="M541.008 1.23022V946" stroke="#373737" stroke-dasharray="1 1"/>
<path d="M548.729 1.23022V946" stroke="#373737" stroke-dasharray="1 1"/>
<path d="M556.451 1.23022V946" stroke="#373737" stroke-dasharray="1 1"/>
<path d="M564.173 1.23022V946" stroke="#373737" stroke-dasharray="1 1"/>
<path d="M571.895 1.23022V946" stroke="#373737" stroke-dasharray="1 1"/>
<path d="M579.617 1.23022V946" stroke="#373737" stroke-dasharray="1 1"/>
<path d="M587.338 1.23022V946" stroke="#373737" stroke-dasharray="1 1"/>
<path d="M595.06 1.23022V946" stroke="#373737" stroke-dasharray="1 1"/>
<path d="M602.782 1.23022V946" stroke="#373737" stroke-dasharray="1 1"/>
<path d="M610.504 1.23022V946" stroke="#373737" stroke-dasharray="1 1"/>
<path d="M618.226 1.23022V946" stroke="#373737" stroke-dasharray="1 1"/>
<path d="M625.947 1.23022V946" stroke="#373737" stroke-dasharray="1 1"/>
<path d="M633.669 1.23022V946" stroke="#373737" stroke-dasharray="1 1"/>
<path d="M641.391 1.23022V946" stroke="#373737" stroke-dasharray="1 1"/>
<path d="M649.113 1.23022V946" stroke="#373737" stroke-dasharray="1 1"/>
<path d="M656.834 1.23022V946" stroke="#373737" stroke-dasharray="1 1"/>
<path d="M664.557 1.23022V946" stroke="#373737" stroke-dasharray="1 1"/>
<path d="M672.278 1.23022V946" stroke="#373737" stroke-dasharray="1 1"/>
<path d="M680 1.23022V946" stroke="#373737" stroke-dasharray="1 1"/>
<path d="M687.722 1.23022V946" stroke="#373737" stroke-dasharray="1 1"/>
<path d="M695.443 1.23022V946" stroke="#373737" stroke-dasharray="1 1"/>
<path d="M703.166 1.23022V946" stroke="#373737" stroke-dasharray="1 1"/>
<path d="M710.887 1.23022V946" stroke="#373737" stroke-dasharray="1 1"/>
<path d="M718.609 1.23022V946" stroke="#373737" stroke-dasharray="1 1"/>
<path d="M726.331 1.23022V946" stroke="#373737" stroke-dasharray="1 1"/>
<path d="M734.053 1.23022V946" stroke="#373737" stroke-dasharray="1 1"/>
<path d="M741.774 1.23022V946" stroke="#373737" stroke-dasharray="1 1"/>
<path d="M749.496 1.23022V946" stroke="#373737" stroke-dasharray="1 1"/>
<path d="M757.218 1.23022V946" stroke="#373737" stroke-dasharray="1 1"/>
<path d="M764.94 1.23022V946" stroke="#373737" stroke-dasharray="1 1"/>
<path d="M772.662 1.23022V946" stroke="#373737" stroke-dasharray="1 1"/>
<path d="M780.383 1.23022V946" stroke="#373737" stroke-dasharray="1 1"/>
<path d="M788.105 1.23022V946" stroke="#373737" stroke-dasharray="1 1"/>
<path d="M795.827 1.23022V946" stroke="#373737" stroke-dasharray="1 1"/>
<path d="M803.549 1.23022V946" stroke="#373737" stroke-dasharray="1 1"/>
<path d="M811.271 1.23022V946" stroke="#373737" stroke-dasharray="1 1"/>
<path d="M818.992 1.23022V946" stroke="#373737" stroke-dasharray="1 1"/>
<path d="M826.714 1.23022V946" stroke="#373737" stroke-dasharray="1 1"/>
<path d="M834.436 1.23022V946" stroke="#373737" stroke-dasharray="1 1"/>
<path d="M842.158 1.23022V946" stroke="#373737" stroke-dasharray="1 1"/>
<path d="M849.879 1.23022V946" stroke="#373737" stroke-dasharray="1 1"/>
<path d="M857.601 1.23022V946" stroke="#373737" stroke-dasharray="1 1"/>
<path d="M865.323 1.23022V946" stroke="#373737" stroke-dasharray="1 1"/>
<path d="M873.045 1.23022V946" stroke="#373737" stroke-dasharray="1 1"/>
<path d="M880.767 1.23022V946" stroke="#373737" stroke-dasharray="1 1"/>
<path d="M888.488 1.23022V946" stroke="#373737" stroke-dasharray="1 1"/>
<path d="M896.21 1.23022V946" stroke="#373737" stroke-dasharray="1 1"/>
<path d="M903.932 1.23022V946" stroke="#373737" stroke-dasharray="1 1"/>
<path d="M911.653 1.23022V946" stroke="#373737" stroke-dasharray="1 1"/>
<path d="M919.375 1.23022V946" stroke="#373737" stroke-dasharray="1 1"/>
<path d="M927.097 1.23022V946" stroke="#373737" stroke-dasharray="1 1"/>
<path d="M934.819 1.23022V946" stroke="#373737" stroke-dasharray="1 1"/>
<path d="M942.541 1.23022V946" stroke="#373737" stroke-dasharray="1 1"/>
<path d="M950.263 1.23022V946" stroke="#373737" stroke-dasharray="1 1"/>
<path d="M957.984 1.23022V946" stroke="#373737" stroke-dasharray="1 1"/>
<path d="M965.706 1.23022V946" stroke="#373737" stroke-dasharray="1 1"/>
<path d="M973.428 1.23022V946" stroke="#373737" stroke-dasharray="1 1"/>
<path d="M981.15 1.23022V946" stroke="#373737" stroke-dasharray="1 1"/>
<path d="M988.872 1.23022V946" stroke="#373737" stroke-dasharray="1 1"/>
<path d="M996.593 1.23022V946" stroke="#373737" stroke-dasharray="1 1"/>
<path d="M1004.32 1.23022V946" stroke="#373737" stroke-dasharray="1 1"/>
<path d="M1012.04 1.23022V946" stroke="#373737" stroke-dasharray="1 1"/>
<path d="M1019.76 1.23022V946" stroke="#373737" stroke-dasharray="1 1"/>
<path d="M1027.48 1.23022V946" stroke="#373737" stroke-dasharray="1 1"/>
<path d="M1035.2 1.23022V946" stroke="#373737" stroke-dasharray="1 1"/>
<path d="M1042.92 1.23022V946" stroke="#373737" stroke-dasharray="1 1"/>
<path d="M1050.65 1.23022V946" stroke="#373737" stroke-dasharray="1 1"/>
<path d="M1058.37 1.23022V946" stroke="#373737" stroke-dasharray="1 1"/>
<path d="M1066.09 1.23022V946" stroke="#373737" stroke-dasharray="1 1"/>
<path d="M1073.81 1.23022V946" stroke="#373737" stroke-dasharray="1 1"/>
<path d="M1081.53 1.23022V946" stroke="#373737" stroke-dasharray="1 1"/>
<path d="M1089.25 1.23022V946" stroke="#373737" stroke-dasharray="1 1"/>
<path d="M1096.98 1.23022V946" stroke="#373737" stroke-dasharray="1 1"/>
<path d="M1104.7 1.23022V946" stroke="#373737" stroke-dasharray="1 1"/>
<path d="M1112.42 1.23022V946" stroke="#373737" stroke-dasharray="1 1"/>
<path d="M1120.14 1.23022V946" stroke="#373737" stroke-dasharray="1 1"/>
<path d="M1127.86 1.23022V946" stroke="#373737" stroke-dasharray="1 1"/>
<path d="M1135.59 1.23022V946" stroke="#373737" stroke-dasharray="1 1"/>
<path d="M1143.31 1.23022V946" stroke="#373737" stroke-dasharray="1 1"/>
<path d="M1151.03 1.23022V946" stroke="#373737" stroke-dasharray="1 1"/>
<path d="M1158.75 1.23022V946" stroke="#373737" stroke-dasharray="1 1"/>
<path d="M1166.47 1.23022V946" stroke="#373737" stroke-dasharray="1 1"/>
<path d="M1174.19 1.23022V946" stroke="#373737" stroke-dasharray="1 1"/>
<path d="M1181.92 1.23022V946" stroke="#373737" stroke-dasharray="1 1"/>
<path d="M1189.64 1.23022V946" stroke="#373737" stroke-dasharray="1 1"/>
<path d="M1197.36 1.23022V946" stroke="#373737" stroke-dasharray="1 1"/>
<path d="M1205.08 1.23022V946" stroke="#373737" stroke-dasharray="1 1"/>
<path d="M1212.8 1.23022V946" stroke="#373737" stroke-dasharray="1 1"/>
<path d="M1220.53 1.23022V946" stroke="#373737" stroke-dasharray="1 1"/>
<path d="M1228.25 1.23022V946" stroke="#373737" stroke-dasharray="1 1"/>
<path d="M1235.97 1.23022V946" stroke="#373737" stroke-dasharray="1 1"/>
<path d="M1243.69 1.23022V946" stroke="#373737" stroke-dasharray="1 1"/>
<path d="M1251.41 1.23022V946" stroke="#373737" stroke-dasharray="1 1"/>
<path d="M1259.13 1.23022V946" stroke="#373737" stroke-dasharray="1 1"/>
<path d="M1266.86 1.23022V946" stroke="#373737" stroke-dasharray="1 1"/>
<path d="M1274.58 1.23022V946" stroke="#373737" stroke-dasharray="1 1"/>
<path d="M1282.3 1.23022V946" stroke="#373737" stroke-dasharray="1 1"/>
<path d="M1290.02 1.23022V946" stroke="#373737" stroke-dasharray="1 1"/>
<path d="M1297.74 1.23022V946" stroke="#373737" stroke-dasharray="1 1"/>
<path d="M1305.46 1.23022V946" stroke="#373737" stroke-dasharray="1 1"/>
<path d="M1313.19 1.23022V946" stroke="#373737" stroke-dasharray="1 1"/>
<path d="M1320.91 1.23022V946" stroke="#373737" stroke-dasharray="1 1"/>
<path d="M1328.63 1.23022V946" stroke="#373737" stroke-dasharray="1 1"/>
<path d="M1336.35 1.23022V946" stroke="#373737" stroke-dasharray="1 1"/>
<path d="M1344.07 1.23022V946" stroke="#373737" stroke-dasharray="1 1"/>
<path d="M1351.8 1.23022V946" stroke="#373737" stroke-dasharray="1 1"/>
<path d="M1359.52 1.23022V946" stroke="#373737" stroke-dasharray="1 1"/>
</g>
<defs>
<clipPath id="clip0_583_9708">
<rect width="1360" height="946" fill="white"/>
</clipPath>
</defs>
</svg>
