<svg width="42" height="77" viewBox="0 0 42 77" fill="none" xmlns="http://www.w3.org/2000/svg">
<path fill-rule="evenodd" clip-rule="evenodd" d="M5.59928 76.1348C25.4341 76.1348 41.5281 59.3767 41.5281 38.0674C41.5281 16.7581 25.4341 -1.45553e-05 5.59927 -1.36883e-05C2.50687 -1.35531e-05 -1.78418e-05 17.0434 -1.69228e-05 38.0674C-1.60038e-05 59.0915 2.50687 76.1348 5.59928 76.1348ZM22.1707 70.7776C33.1419 64.582 40.5949 52.3746 40.5949 38.0674C40.5949 23.7602 33.1419 11.5528 22.1707 5.35722C31.5418 11.9615 37.7952 24.0478 37.7952 38.0674C37.7952 52.087 31.5418 64.1733 22.1707 70.7776ZM36.862 38.0674C36.862 52.732 29.8797 65.1487 19.7206 71.1937C28.3119 64.6787 34.0624 52.3545 34.0624 38.0674C34.0623 23.7804 28.3118 11.4561 19.7206 4.94107C29.8797 10.9861 36.862 23.4028 36.862 38.0674ZM17.3431 71.6402C26.6446 65.7856 33.1291 53.1393 33.1291 38.0674C33.1291 22.9955 26.6446 10.3492 17.343 4.49463C19.4899 6.26141 21.4412 8.49838 23.1391 11.1137C27.5916 17.9724 30.3295 27.4673 30.3295 38.0674C30.3295 48.6675 27.5916 58.1624 23.1391 65.0211C21.4412 67.6364 19.4899 69.8734 17.3431 71.6402ZM22.3734 64.4483C20.2813 67.6711 17.8137 70.274 15.088 72.1038C17.118 70.2607 18.949 67.8465 20.5186 64.9891C24.2838 58.1348 26.5966 48.6517 26.5966 38.0674C26.5966 27.4831 24.2838 18 20.5186 11.1457C18.949 8.2883 17.1179 5.87409 15.088 4.03105C17.8137 5.86076 20.2813 8.46376 22.3734 11.6865C26.7026 18.3551 29.3963 27.6435 29.3963 38.0674C29.3963 48.4913 26.7026 57.7797 22.3734 64.4483ZM13.0027 72.5496C15.5182 70.7184 17.7984 67.969 19.7148 64.4803C23.3803 57.8073 25.6634 48.5072 25.6634 38.0674C25.6634 27.6276 23.3803 18.3275 19.7148 11.6545C17.7983 8.16576 15.5182 5.41641 13.0026 3.58524C14.8529 5.4917 16.5051 8.08452 17.8974 11.1825C20.9743 18.0286 22.8638 27.4981 22.8638 38.0674C22.8638 48.6367 20.9743 58.1062 17.8974 64.9523C16.5051 68.0503 14.8529 70.6431 13.0027 72.5496ZM17.0569 64.517C15.3562 68.3012 13.318 71.1918 11.0825 72.9942C12.6773 71.0551 14.093 68.2907 15.2745 64.9107C17.6633 58.0769 19.1309 48.6227 19.1309 38.0674C19.1309 27.5121 17.6633 18.0579 15.2745 11.2242C14.093 7.84414 12.6773 5.0797 11.0825 3.14065C13.318 4.94302 15.3562 7.83367 17.0569 11.6178C20.0597 18.2989 21.9305 27.6127 21.9305 38.0674C21.9305 48.5221 20.0597 57.8359 17.0569 64.517ZM9.34619 73.4391C9.68013 73.1301 10.0105 72.7793 10.3367 72.3871C11.8478 70.5702 13.2303 67.9073 14.4008 64.5587C16.7406 57.8652 18.1977 48.5362 18.1977 38.0674C18.1977 27.5986 16.7406 18.2696 14.4008 11.5761C13.2303 8.22755 11.8478 5.56461 10.3367 3.74773C10.0105 3.35555 9.68013 3.00475 9.34619 2.69572C9.44054 2.84076 9.53355 2.99056 9.62519 3.14481C10.778 5.0854 11.7986 7.86541 12.6488 11.2704C14.351 18.0878 15.398 27.5253 15.398 38.0674C15.398 48.6095 14.351 58.047 12.6488 64.8644C11.7986 68.2694 10.778 71.0494 9.62519 72.99C9.53355 73.1443 9.44054 73.2941 9.34619 73.4391ZM8.83836 72.4514C8.3123 73.3369 7.78348 73.9909 7.26058 74.4313C9.54181 69.6195 11.1986 55.1588 11.1986 38.0674C11.1986 20.976 9.54181 6.51534 7.26058 1.7035C7.78348 2.14391 8.3123 2.79796 8.83835 3.68347C9.91847 5.5016 10.9088 8.1712 11.7474 11.5298C13.4228 18.2397 14.4648 27.5855 14.4648 38.0674C14.4648 48.5493 13.4228 57.8951 11.7474 64.605C10.9088 67.9636 9.91847 70.6332 8.83836 72.4514ZM5.20966 1.38536C5.4343 1.07284 5.56701 1.01373 5.59927 1.0034C5.63154 1.01373 5.76425 1.07284 5.98889 1.38536C6.27105 1.7779 6.58369 2.41939 6.90449 3.34187C7.5422 5.17563 8.13383 7.88655 8.63678 11.3059C9.64036 18.1289 10.2654 27.591 10.2654 38.0674C10.2654 48.5438 9.64036 58.006 8.63678 64.8289C8.13383 68.2483 7.5422 70.9592 6.90449 72.793C6.58369 73.7154 6.27105 74.3569 5.98889 74.7495C5.76425 75.062 5.63154 75.1211 5.59928 75.1314C5.56702 75.1211 5.4343 75.062 5.20966 74.7495C4.9275 74.3569 4.61486 73.7154 4.29406 72.793C3.65636 70.9592 3.06472 68.2483 2.56177 64.8289C1.5582 58.006 0.9332 48.5438 0.933199 38.0674C0.933199 27.591 1.55819 18.1289 2.56177 11.3059C3.06472 7.88655 3.65635 5.17563 4.29406 3.34187C4.61486 2.41939 4.92749 1.7779 5.20966 1.38536Z" fill="url(#paint0_linear_500_6861)"/>
<defs>
<linearGradient id="paint0_linear_500_6861" x1="43.657" y1="35.7317" x2="-1.9514" y2="38.2066" gradientUnits="userSpaceOnUse">
<stop stop-color="white"/>
<stop offset="1" stop-color="white" stop-opacity="0"/>
</linearGradient>
</defs>
</svg>
