<svg width="42" height="77" viewBox="0 0 42 77" fill="none" xmlns="http://www.w3.org/2000/svg">
<path fill-rule="evenodd" clip-rule="evenodd" d="M35.9288 76.1348C16.094 76.1348 -7.3252e-07 59.3767 -1.66398e-06 38.0674C-2.59544e-06 16.7581 16.094 -1.59623e-05 35.9288 -1.68293e-05C39.0212 -1.69645e-05 41.5281 17.0434 41.5281 38.0674C41.5281 59.0915 39.0212 76.1348 35.9288 76.1348ZM19.3574 70.7776C8.3862 64.582 0.933215 52.3746 0.933214 38.0674C0.933213 23.7602 8.3862 11.5528 19.3574 5.35722C9.98627 11.9615 3.73286 24.0478 3.73286 38.0674C3.73286 52.087 9.98625 64.1733 19.3574 70.7776ZM4.66608 38.0674C4.66608 52.732 11.6484 65.1487 21.8075 71.1937C13.2162 64.6787 7.46572 52.3545 7.46572 38.0674C7.46572 23.7804 13.2162 11.4561 21.8075 4.94107C11.6484 10.9861 4.66608 23.4028 4.66608 38.0674ZM24.185 71.6402C14.8835 65.7856 8.39894 53.1393 8.39894 38.0674C8.39894 22.9955 14.8835 10.3492 24.185 4.49463C22.0382 6.2614 20.0869 8.49838 18.389 11.1137C13.9365 17.9724 11.1986 27.4673 11.1986 38.0674C11.1986 48.6675 13.9365 58.1624 18.389 65.0211C20.0869 67.6364 22.0382 69.8734 24.185 71.6402ZM19.1547 64.4483C21.2468 67.6711 23.7143 70.274 26.4401 72.1038C24.4101 70.2607 22.579 67.8465 21.0094 64.9891C17.2443 58.1348 14.9314 48.6517 14.9314 38.0674C14.9314 27.4831 17.2443 18 21.0094 11.1457C22.579 8.2883 24.4101 5.87408 26.4401 4.03105C23.7143 5.86076 21.2468 8.46376 19.1547 11.6865C14.8255 18.3551 12.1318 27.6435 12.1318 38.0674C12.1318 48.4913 14.8255 57.7797 19.1547 64.4483ZM28.5254 72.5496C26.0098 70.7184 23.7297 67.969 21.8133 64.4803C18.1478 57.8073 15.8647 48.5072 15.8647 38.0674C15.8647 27.6276 18.1478 18.3275 21.8133 11.6545C23.7297 8.16576 26.0098 5.41641 28.5254 3.58523C26.6752 5.4917 25.023 8.08452 23.6306 11.1825C20.5538 18.0286 18.6643 27.4981 18.6643 38.0674C18.6643 48.6367 20.5538 58.1062 23.6306 64.9523C25.023 68.0503 26.6752 70.6431 28.5254 72.5496ZM24.4712 64.517C26.1719 68.3012 28.2101 71.1918 30.4455 72.9942C28.8508 71.0551 27.4351 68.2907 26.2536 64.9107C23.8648 58.0769 22.3972 48.6227 22.3972 38.0674C22.3972 27.5121 23.8648 18.0579 26.2536 11.2242C27.4351 7.84414 28.8508 5.0797 30.4455 3.14065C28.2101 4.94302 26.1719 7.83366 24.4712 11.6178C21.4684 18.2989 19.5975 27.6127 19.5975 38.0674C19.5975 48.5221 21.4684 57.8359 24.4712 64.517ZM32.1819 73.4391C31.8479 73.1301 31.5175 72.7793 31.1914 72.3871C29.6803 70.5702 28.2978 67.9073 27.1273 64.5587C24.7875 57.8652 23.3304 48.5362 23.3304 38.0674C23.3304 27.5986 24.7875 18.2696 27.1273 11.5761C28.2978 8.22755 29.6802 5.56461 31.1914 3.74773C31.5175 3.35555 31.8479 3.00474 32.1819 2.69572C32.0875 2.84076 31.9945 2.99056 31.9029 3.14481C30.75 5.08539 29.7295 7.86541 28.8793 11.2704C27.1771 18.0878 26.13 27.5253 26.13 38.0674C26.13 48.6095 27.1771 58.047 28.8793 64.8644C29.7295 68.2694 30.75 71.0494 31.9029 72.99C31.9945 73.1443 32.0875 73.2941 32.1819 73.4391ZM32.6897 72.4514C33.2158 73.3369 33.7446 73.9909 34.2675 74.4313C31.9863 69.6195 30.3295 55.1588 30.3295 38.0674C30.3295 20.976 31.9863 6.51534 34.2675 1.7035C33.7446 2.1439 33.2158 2.79796 32.6897 3.68346C31.6096 5.50159 30.6193 8.1712 29.7807 11.5298C28.1053 18.2397 27.0632 27.5855 27.0632 38.0674C27.0633 48.5493 28.1053 57.8951 29.7807 64.605C30.6193 67.9636 31.6096 70.6332 32.6897 72.4514ZM36.3184 1.38536C36.0938 1.07284 35.9611 1.01372 35.9288 1.00339C35.8965 1.01372 35.7638 1.07284 35.5392 1.38536C35.257 1.7779 34.9444 2.41939 34.6236 3.34186C33.9859 5.17563 33.3942 7.88655 32.8913 11.3059C31.8877 18.1289 31.2627 27.591 31.2627 38.0674C31.2627 48.5438 31.8877 58.006 32.8913 64.8289C33.3942 68.2483 33.9859 70.9592 34.6236 72.7929C34.9444 73.7154 35.257 74.3569 35.5392 74.7495C35.7638 75.062 35.8965 75.1211 35.9288 75.1314C35.9611 75.1211 36.0938 75.062 36.3184 74.7495C36.6006 74.3569 36.9132 73.7154 37.234 72.7929C37.8717 70.9592 38.4634 68.2483 38.9663 64.8289C39.9699 58.006 40.5949 48.5438 40.5949 38.0674C40.5949 27.591 39.9699 18.1289 38.9663 11.3059C38.4633 7.88655 37.8717 5.17563 37.234 3.34186C36.9132 2.41939 36.6006 1.7779 36.3184 1.38536Z" fill="url(#paint0_linear_500_6862)"/>
<defs>
<linearGradient id="paint0_linear_500_6862" x1="-6.60979" y1="38.5601" x2="43.5" y2="38.1348" gradientUnits="userSpaceOnUse">
<stop stop-color="white"/>
<stop offset="1" stop-color="white" stop-opacity="0"/>
</linearGradient>
</defs>
</svg>
