<svg width="13" height="13" viewBox="0 0 13 13" fill="none" xmlns="http://www.w3.org/2000/svg">
<path d="M2.08178 6.60196C4.80068 7.45162 5.54838 8.2265 6.39124 10.9182C6.39723 10.9416 6.41084 10.9623 6.42992 10.9772C6.44899 10.992 6.47245 11 6.4966 11C6.52075 11 6.54421 10.992 6.56329 10.9772C6.58236 10.9623 6.59597 10.9416 6.60196 10.9182C7.43802 8.2265 8.2265 7.43802 10.9182 6.60196C10.9416 6.59597 10.9623 6.58236 10.9772 6.56329C10.992 6.54421 11 6.52075 11 6.4966C11 6.47245 10.992 6.44899 10.9772 6.42992C10.9623 6.41084 10.9416 6.39723 10.9182 6.39124C8.2265 5.54838 7.43802 4.7667 6.60196 2.08178C6.59597 2.05839 6.58236 2.03765 6.56329 2.02284C6.54421 2.00804 6.52075 2 6.4966 2C6.47245 2 6.44899 2.00804 6.42992 2.02284C6.41084 2.03765 6.39723 2.05839 6.39124 2.08178C5.54838 4.80068 4.7667 5.54838 2.08178 6.39124C2.05839 6.39723 2.03765 6.41084 2.02284 6.42992C2.00804 6.44899 2 6.47245 2 6.4966C2 6.52075 2.00804 6.54421 2.02284 6.56329C2.03765 6.58236 2.05839 6.59597 2.08178 6.60196Z" fill="white"/>
<circle cx="6.5" cy="6.5" r="6" stroke="white"/>
</svg>
