<svg width="172" height="61" viewBox="0 0 172 61" fill="none" xmlns="http://www.w3.org/2000/svg">
<rect width="1.40057" height="60.4922" transform="matrix(-1 0 0 1 162.466 0)" fill="white"/>
<rect width="1.40057" height="60.4922" transform="matrix(-1 0 0 1 171.466 0)" fill="white"/>
<rect width="1.40057" height="60.4922" transform="matrix(-1 0 0 1 151.261 0)" fill="white"/>
<rect width="2.80114" height="60.4922" transform="matrix(-1 0 0 1 141.457 0)" fill="white"/>
<rect width="2.80114" height="60.4922" transform="matrix(-1 0 0 1 133.054 0)" fill="white"/>
<rect width="2.80114" height="60.4922" transform="matrix(-1 0 0 1 123.25 0)" fill="white"/>
<rect width="2.80114" height="60.4922" transform="matrix(-1 0 0 1 114.847 0)" fill="white"/>
<rect width="2.80114" height="60.4922" transform="matrix(-1 0 0 1 106.443 0)" fill="white"/>
<rect width="2.80114" height="60.4922" transform="matrix(-1 0 0 1 99.4404 0)" fill="white"/>
<rect width="2.80114" height="60.4922" transform="matrix(-1 0 0 1 93.8381 0)" fill="white"/>
<rect width="2.80114" height="60.4922" transform="matrix(-1 0 0 1 86.8353 0)" fill="white"/>
<rect width="2.80114" height="60.4922" transform="matrix(-1 0 0 1 81.233 0)" fill="white"/>
<rect width="2.80114" height="60.4922" transform="matrix(-1 0 0 1 75.6307 0)" fill="white"/>
<rect width="2.80114" height="60.4922" transform="matrix(-1 0 0 1 70.0284 0)" fill="white"/>
<rect width="2.80114" height="60.4922" transform="matrix(-1 0 0 1 64.4261 0)" fill="white"/>
<rect width="2.80114" height="60.4922" transform="matrix(-1 0 0 1 60.2245 0)" fill="white"/>
<rect width="2.80114" height="60.4922" transform="matrix(-1 0 0 1 56.0228 0)" fill="white"/>
<rect width="2.80114" height="60.4922" transform="matrix(-1 0 0 1 51.821 0)" fill="white"/>
<rect width="2.80114" height="60.4922" transform="matrix(-1 0 0 1 47.6194 0)" fill="white"/>
<rect width="2.80114" height="60.4922" transform="matrix(-1 0 0 1 43.4176 0)" fill="white"/>
<rect width="2.80114" height="60.4922" transform="matrix(-1 0 0 1 39.2159 0)" fill="white"/>
<rect width="2.80114" height="60.4922" transform="matrix(-1 0 0 1 35.0142 0)" fill="white"/>
<rect width="2.80114" height="60.4922" transform="matrix(-1 0 0 1 30.8125 0)" fill="white"/>
<rect width="26.6108" height="60.4922" transform="matrix(-1 0 0 1 26.6108 0)" fill="white"/>
</svg>
